<?xml version="1.0" encoding="utf-8"?><svg viewBox="0 0 268 194" xmlns="http://www.w3.org/2000/svg" xmlns:xlink="http://www.w3.org/1999/xlink"><style>:root>svg{display:none}:root>svg:target{display:block}</style><svg fill="none" viewBox="0 0 268 112" id="cat-icon-pro" xmlns="http://www.w3.org/2000/svg"><path fill="#000" d="M246.2 11.5c2.3-3.7 5.4-6.8 9-9.2 2-1.4 3.2-1.4 4.4 1.2 1.6 3.8 3 7.8 1.8 12a4.6 4.6 0 0 0 .8 4.2l3.2 4.6a12.5 12.5 0 0 1 1.8 12.4c-.7 2-.8 4.2-.4 6.2s.4 4 0 6a7.5 7.5 0 0 1-5.4 6.4c-2.5.5-4.8 2-6.4 4a2 2 0 0 1-1.8 1c-2.4.4-8.4-5-8.4-7.4v-1.2c.2-7.2-.2-7.8-6.8-10.8a8.8 8.8 0 0 1-3.6-2.4c-1.2-1.6-2.8-1.4-4.6-.8-1.8.6-2.8 1.8-2.6 3.8.6 4.9.8 9.7.6 14.6 0 .6.2 1.1.4 1.6 6.2 9 8.6 19.6 11.6 29.8 2.4 7.8 6.8 12 14.8 12.6 1.3.1 2.6.3 3.8.6a8.3 8.3 0 0 1 6.8 6.4c1.4 4.2.6 5.2-3.6 5.2h-13c-1.6.1-3.3-.5-4.6-1.6-2-1.7-4.3-3-6.8-4-2.7-1-5-2.8-6.8-5.2-2.3-3.3-5-6.3-8-9-5.6-5.8-11.6-11.4-16.8-17.4-4-4-6.2-9.5-6.4-15.2 0-1.8-.4-2.6-2.4-1.8-.6.4-1.3.6-2 .6-5.6 0-8.4 3.4-10.4 8.4-1.8 4.2-4.2 8.2-6.4 12.4-1.2 2.6-1.9 5.5-2 8.4 0 4.8 1.2 6.4 5.6 8 2.8 1 5.4 2 6.8 4.8 1.6 3.2 1.2 4-2.2 4.2h-13.6a3.8 3.8 0 0 1-3.8-2.2l-3.6-6a12.1 12.1 0 0 1-1.4-10.8c.9-3.5 1-7 .2-10.6a16.8 16.8 0 0 1 3.4-14c1.2-1.4 1.2-2-.8-2.4a100.1 100.1 0 0 1-23.8-8.4c-6.4-2.4-7.6-2-9.4 4.6-1.6 5.6-3.2 11.2-4.4 17a34 34 0 0 0 2.2 18.4c.8 2.4 3.2 2.2 5 2.8 4 1.2 7.4 2.8 9 7 1.4 3.2 1.2 3.6-2.2 3.6-3.4 0-6.8-.2-10.4 0-3 0-6-1-8.4-2.8-9.6-6.4-12.4-16.2-13.2-26.8-.4-6.6-4-11.8-8.2-16.8-.8-1-1.6-1.4-2.8-.6a88.6 88.6 0 0 1-13.4 6 53.4 53.4 0 0 0-24.4 17.6c-2.3 3-3.8 6.5-4.4 10.2-.6 3.6.4 5.2 4 6.2s5.4 3 5.8 6.8c.2 1.6-.4 2.4-2 2.4H49.4a3.3 3.3 0 0 1-2.6-1.6c-2.5-3.1-3.8-7-3.8-11 0-6.9.5-13.8 1.8-20.6a12.6 12.6 0 0 1 6.8-9.6c11.8-5.6 18-16.2 23.6-27.2 1.2-2.2.2-2.6-1.8-2.4A33 33 0 0 0 58 40.1c-5.9 4.3-11.4 9-16.6 14.2-5.5 5.6-12.8 9-20.6 9.8C6.2 65-.6 56.7 0 43.5c.2-4.5 2-8.8 4.8-12.2a8.5 8.5 0 0 1 9-3c3 .8 3.8 2.4 2.6 5.4l-2 3.4a15 15 0 0 0-2 4c-2.2 6 .8 10.2 7 10.8 6.6.6 12-2.2 17-6.2 6-4.8 11.4-10.4 16-16.6A41.6 41.6 0 0 1 81.2 13c4.6-.6 8.6-2.6 13-3.8a83 83 0 0 1 25.4-3.6c4 .2 8-.6 11.6-2.2 9.8-4 20-4 30.2-2 8 1.6 16 3.6 23.8 5.6 4.7.9 9.5.7 14-.4C208 4.3 217 3 226 2.5c6-.3 11.9.9 17.2 3.4 4 1.8 4 1.8 3 5.6z"/></svg><svg fill="none" viewBox="0 0 140 194" id="cat-icon-slim" xmlns="http://www.w3.org/2000/svg"><path fill="#000" d="M109.7 0h-.8a7 7 0 0 0-2.9 3.2 31 31 0 0 0-2.6 6.8 3.3 3.3 0 0 1-3 2.7A14.7 14.7 0 0 0 90 20.2a54.6 54.6 0 0 0-3.7 8c-2.8 7.4-5 15-7.7 22.4-1.3 3.4-1.3 3.4-5.1 3.4-4.6 0-4.2-.7-4.3 4.3 0 1.6.5 2.4 2.2 2.3.5 0 1.3-.3 1.5.4.2.7-.5 1-1 1.4a18 18 0 0 1-8.6 4.9c-3.8 1-7.7 1.8-11.4 3a57.3 57.3 0 0 0-25 15.2 56 56 0 0 0-9.6 15.7A219.4 219.4 0 0 0 3.7 155c-1.3 8.6-2.2 17.3-3 26-.3 4.3-.7 8.6-.7 13h66.7c0-.9 0-1.8-.5-2.6a10 10 0 0 0-7.7-6.1c-1.4-.3-1.5-.7-.7-1.8 1.4-2 2.5-4 3.2-6.2 3.3-9.7 4.5-19.7 6.1-29.6A60 60 0 0 1 74 126c2.8-5 6.6-9.3 11.2-12.7 1.6-1.3 1.7-1.3 2 .8l.3 4.4c.6 9.4.5 18.9-.3 28.3a123.3 123.3 0 0 0 4.2 47.2H118a10.8 10.8 0 0 0-8.5-8.9 18 18 0 0 0-7.5.4c-1.2.3-1.7 0-1.8-1.3-.8-10.6-.2-21.2 2-31.6 2.7-12 4.7-24.2 6.1-36.4.5-5 2.1-9.7 4.6-14 2.4-4.2 4.4-8.6 6.8-12.9a11.7 11.7 0 0 0 .8-10.4c-.5-1.4-1-2.8-1.7-4.2-2-3.9-4-7.7-5.8-11.7-1-2-.8-2.2 1.4-2.3 3.2 0 3.2 0 3.3-3.3v-1.3c0-1.4-.5-2.1-2-2h-3c-1.4 0-1.8-.6-1.5-2a12.5 12.5 0 0 1 10.3-8.8 44 44 0 0 1 13.2.8 2 2 0 0 0 2.5-1.3l2.6-6a2 2 0 0 0-.2-2.2 71.1 71.1 0 0 0-24-21.5 3 3 0 0 1-.6-1.3c-.5-2.9-1.3-5.7-2.5-8.4a7 7 0 0 0-2.8-3.4z"/></svg><svg fill="none" viewBox="0 0 71 59" id="ce-logo-sign-desktop" xmlns="http://www.w3.org/2000/svg"><path fill="#FDC305" d="M59.88 23.8a25.43 25.43 0 0 0-8.05-10.37 25.72 25.72 0 0 0-25.29-3.35A25.59 25.59 0 0 0 16.03 18a25.3 25.3 0 0 0-3.55 25.05 25.42 25.42 0 0 0 7.9 10.49 25.72 25.72 0 0 0 12.13 5.18c-.58-2.07-1.17-4.36-1.69-6.8a32.4 32.4 0 0 0 4.76 2.54s.12 2.14.28 4.53c1.79.03 3.58-.13 5.33-.47a2.1 2.1 0 0 1 0-.75c.3-1.85 1.1-5.2 1.25-7.35a15.12 15.12 0 0 0 2.9-3.68l-.06.44c-.55 4.22-1.7 8.74-2.4 9.98-.23.42-.5.8-.83 1.15a25.73 25.73 0 0 0 16.96-13.16 25.27 25.27 0 0 0 .87-21.34zm-1.47 3.77c-.44.42-1.35.71-1.5-.58-.15-1.29-.19-2.2-.19-2.2s-1.93-3.4-2.65-3.43c-.72-.04-5.83 3.44-7.18 4.96-1.17 1.28-1.4 1.19-1.4 3.44 0 1.7.22 8.1.1 13l-8.15 2.15c-2.56.73-5.17 1.3-7.8 1.71l-1-5.78h-.14l-2.57-13.07s-3.8-1.42-5.2-1.81a3.79 3.79 0 0 0-4.01.62 5.03 5.03 0 0 0-1.73 3.82c.21.46.37.95.48 1.44.05.48-1.2.43-2 .43s-.92-1.43-.29-3.1c.5-1.3 1.1-2.54 1.82-3.72a11.78 11.78 0 0 1 2.07-2.86s.14-.34 1.25-.24c1.11.1 7.28.42 7.28.42l.05-2.25c6.7-.92 13.47-1.36 20.24-1.33v1.82a22.67 22.67 0 0 1 8.14-1.98.92.92 0 0 1 .77.38c.34.43 2.41 2.98 2.65 3.34.67.96 1.29 1.95 1.83 2.98a6.17 6.17 0 0 1-.87 1.83z"/><path fill="#F06351" d="m56.46 21.5 1 1.27c.68.96 1.29 1.95 1.83 2.98a6.17 6.17 0 0 1-.86 1.77c-.44.42-1.35.71-1.5-.58-.15-1.29-.2-2.14-.2-2.14s-1.94-3.4-2.66-3.44c-.72-.04-5.83 3.44-7.18 4.96-1.17 1.28-1.4 1.19-1.4 3.44 0 1.49.17 6.6.13 11.14 1.81.2 4.47.7 5.27 1.86 0 0-.29-7.12 7.81-3.39 0 0 .28-9.71 11.46-7.22a43.67 43.67 0 0 0-13.7-10.65zm-10.53-2.3c.04-5.5-.43-11-1.4-16.4 0 0-.15-1.3-.87-.24-.6 1.26-1 2.6-1.2 3.97a71.46 71.46 0 0 0-12.82.33c-.82-2.72-2.22-3.96-2.89-3.64-.67.33-.75 3.26-.75 3.26l-.33 14.04c6.71-.92 13.49-1.36 20.26-1.33z"/><path fill="#E55645" d="M45.35 46.74c.13-1.06.2-2.47.24-4.03l-8.15 2.16a64.43 64.43 0 0 1-7.8 1.75l1.11 4.96c0 .11 0 .22.07.33a32.4 32.4 0 0 0 4.76 2.53 42.49 42.49 0 0 0 6.88-4.1v.06a15.12 15.12 0 0 0 2.9-3.66z"/><path fill="#000" d="M32 16.09c-.05-.1 1 .67 1.41.91.41.24.61.42.61.59 0 .17-.26.33-.62.33s-.92-.11-1-.25c-.08-.14.6 0 .94 0h.3A8.05 8.05 0 0 1 32 16.09zm7.5.11s-1 1.27-1.09 1.33c-.09.06-.17.33.2.29.4-.07.81-.16 1.21-.28.11-.06.07-.2-.12-.18-.19.02-.68.05-1 .1l.85-1.25s.03-.12-.05-.01zm-3.14 6.06c.47-.2.85-.55 1.1-1 .27-.65 0-.9-.45-.98-.6-.11-1.23 0-1.75.33-.39.37-.34.73 0 1 .34.26.7.48 1.1.65z"/><path fill="#F06351" d="M36 23.5c-.11.23-.27.44-.46.6-.28.23-.63.36-1 .38a2.2 2.2 0 0 1-1.54-.44 2 2 0 0 1-.53-.44 1 1 0 0 0-.36-.25s.75 4.08 2.57 4.73c1.82.66 2.16-.75 2.21-1.13a5.55 5.55 0 0 0-.82-3.21c0-.3-.02-.1-.07-.23z"/><path fill="#000" d="M34.3 24.64a3.52 3.52 0 0 1-2.35-1.42.15.15 0 0 1 0-.2.14.14 0 0 1 .2 0 3.21 3.21 0 0 0 2.11 1.3 2.12 2.12 0 0 0 1.64-.99l.14-.19.1.22s.38.75 1 .8c.62.03 1.06-.42 1.63-1.29a.14.14 0 0 1 .2-.04.14.14 0 0 1 .04.2c-.67.97-1.3 1.44-1.89 1.4a1.56 1.56 0 0 1-1.12-.72 2.25 2.25 0 0 1-1.7.93z"/><path fill="#FDC305" d="M36.26 38a3.73 3.73 0 0 0 3.75-3.73 3.73 3.73 0 0 0-3.75-3.72 3.73 3.73 0 0 0-3.75 3.72A3.73 3.73 0 0 0 36.26 38z"/><path fill="#111" d="m41.23 31.25-3.13 1.3 1.15-5.59-7.5 9.68 3.13-1.3-1.15 5.6 7.5-9.7zm-7.39 3.8L38 29.67l-.8 3.97 2-.82L35 38.2l.81-3.97-1.97.8zm-1.4-1.46a1.116 1.116 0 1 0 0-2.23 1.12 1.12 0 1 0 0 2.22zm6.52 4.02c.44 0 .8-.35.8-.78a.79.79 0 0 0-.8-.78.79.79 0 0 0-.79.78c0 .43.36.78.8.78zm.96-2.15c.2 0 .35-.15.35-.35a.34.34 0 0 0-.35-.34c-.2 0-.35.15-.35.34 0 .2.16.35.35.35z"/><path fill="#F06351" d="M45.88 20.99a57.2 57.2 0 0 0-5.09 5.17 31.78 31.78 0 0 1-5.3 4.86c-.23-.53-1.64-1.51-1.64-1.51s-3.14-2.13-5.2-3.8a31.8 31.8 0 0 1-3.14-2.98l-2-.11a22.62 22.62 0 0 0 12 8.76c.86-.13 3.28-1.85 5.1-3.25a57.45 57.45 0 0 0 6-5.86c.49-.59.88-1.26 1.13-1.99-1.14.38-1.86.7-1.86.7z"/><path fill="#FDC305" d="m65.22 3.47-8.46 9.37-1.22-1.98L63.7 0l1.53 3.47zm-2.57 13.65 5.54-4.08-.78-3.7-5.4 4.77.64 3.01zm-2.73 31.85 6.13 3.16 3.01-2.33-6.69-2.72-2.45 1.9zM1.95 5.92 5.02 2.6l9.29 8.93-1.22 2.26L1.95 5.92zm5.43 10.23-4.7-3.1-2.4 3.83 5.15 2.38 1.95-3.11zm6.53 35.98-4.55 3.32 2.8 3.55 4.02-3.99-2.27-2.88z"/><path fill="#F06351" d="M25.93 27.77s-3.8-1.42-5.2-1.81a3.79 3.79 0 0 0-4 .62 5.03 5.03 0 0 0-1.74 3.82c.21.46.37.95.48 1.44.05.48-1.2.43-2 .43s-.92-1.43-.29-3.1c.5-1.3 1.1-2.54 1.82-3.72-5.45 2.82-15 9.33-15 9.33a46.2 46.2 0 0 1 8.19.24c5.25.52 5 4.63 5 4.63a38.9 38.9 0 0 1 5.63-1.1c2.12-.14 2.27 2.1 2.27 2.1l.53 3.83c.8-.87 1.7-1.65 2.65-2.34a6.1 6.1 0 0 1 4.38-1.3l-2.72-13.07z"/></svg><svg fill="none" viewBox="0 0 34 38" id="ce-logo-sign-mobile" xmlns="http://www.w3.org/2000/svg"><g clip-path="url(#da)"><path fill="#FDC305" d="M6.07 20.72v-2.26c6.68-.92 13.42-1.36 20.17-1.33 0 .6 0 1.21-.06 1.82a25.52 25.52 0 0 1 6-1.82A16.67 16.67 0 0 0 .19 20.39l5.88.33zm21.17 3.51c-1.16 1.28-1.39 1.2-1.39 3.45v9.18A16.64 16.64 0 0 0 33.32 23a17.3 17.3 0 0 0-.32-3.1c-2.07 1.23-4 2.68-5.76 4.33zM6.36 25.72s-3.79-1.44-5.19-1.83A8.54 8.54 0 0 0 0 23.61a16.65 16.65 0 0 0 8.68 14L6.36 25.72z"/><path fill="#F06351" d="M26.29 17.12A89.8 89.8 0 0 0 24.89.65S24.75-.64 24 .41c-.59 1.25-1 2.58-1.2 3.94a70.34 70.34 0 0 0-12.77.34C9.24 2 7.85.75 7.18 1c-.67.25-.72 3.31-.72 3.31l-.33 14.1c6.68-.9 13.42-1.34 20.16-1.29z"/><path fill="#000" d="M12.41 14c0-.09 1 .68 1.41.92.41.24.61.42.61.59 0 .17-.27.34-.63.34s-.91-.12-1-.27h1.23A8.34 8.34 0 0 1 12.41 14zm7.48.11-1.09 1.33c0 .06-.17.35.18.3.41-.06.82-.16 1.22-.29.11 0 .07-.19-.11-.17-.18.02-.69.05-1 .11l.84-1.26s.07-.13-.04-.02zm-3.14 6.09c.46-.2.85-.56 1.09-1 .28-.65 0-.91-.44-1-.6-.11-1.22.01-1.74.34-.39.36-.34.72-.05 1 .35.27.73.49 1.14.66z"/><path fill="#F06351" d="M16.35 21.45c-.11.23-.27.43-.46.6-.28.23-.63.36-1 .38a2.15 2.15 0 0 1-1.47-.43 2.3 2.3 0 0 1-.53-.44c-.1-.11-.22-.2-.36-.26 0 0 .75 4.1 2.57 4.75 1.82.65 2.14-.75 2.2-1.13a5.61 5.61 0 0 0-.82-3.23c-.02-.31-.03-.11-.13-.24z"/><path fill="#000" d="M14.71 22.59a3.44 3.44 0 0 1-2.36-1.47.14.14 0 0 1 .03-.15.14.14 0 0 1 .2 0c.5.7 1.26 1.16 2.11 1.3a2.1 2.1 0 0 0 1.63-1l.14-.19.1.21s.37.76 1 .8c.63.04 1.05-.41 1.61-1.28a.14.14 0 0 1 .2 0 .15.15 0 0 1 .05.2c-.64 1-1.27 1.44-1.88 1.4a1.55 1.55 0 0 1-1.12-.76 2.26 2.26 0 0 1-1.71.94z"/><path fill="#F06351" d="M26.24 18.92a58.63 58.63 0 0 0-5.07 5.19A31.63 31.63 0 0 1 15.88 29c-.22-.53-1.62-1.51-1.62-1.51s-3.13-2.14-5.18-3.82a34.14 34.14 0 0 1-3.13-3l-2-.11c2.89 4.2 7.12 7.3 12 8.8.86-.14 3.27-1.86 5.07-3.26a58.13 58.13 0 0 0 5.94-5.89c.5-.59.89-1.27 1.14-2-1.1.39-1.86.71-1.86.71z"/></g><defs><clipPath id="da"><path fill="#fff" d="M0 0h33.32v37.61H0z"/></clipPath></defs></svg><svg fill="none" viewBox="0 0 61 51" id="ce-logo-sign-tablet" xmlns="http://www.w3.org/2000/svg"><path fill="#FDC305" d="M51.58 19.85a22.23 22.23 0 0 0-6.93-9.09 21.96 21.96 0 0 0-30.84 4 22.35 22.35 0 0 0-3.06 21.96 22.24 22.24 0 0 0 6.81 9.18A21.97 21.97 0 0 0 28 50.44c-.5-1.82-1-3.82-1.45-5.95 1.3.85 2.67 1.6 4.1 2.21 0 0 .1 1.88.24 3.97 1.54.03 3.08-.1 4.6-.4a1.87 1.87 0 0 1 0-.66c.24-1.63.93-4.56 1.07-6.44 1-.94 1.83-2.03 2.5-3.23l-.05.39c-.48 3.7-1.47 7.65-2.07 8.75-.2.36-.44.7-.72 1a22 22 0 0 0 14.61-11.53 22.43 22.43 0 0 0 .75-18.7zm-1.26 3.3c-.38.37-1.17.62-1.3-.5a30.33 30.33 0 0 1-.16-1.93s-1.66-2.98-2.28-3.01c-.62-.04-5.03 3.01-6.19 4.34-1 1.12-1.2 1.05-1.2 3.02 0 1.48.19 7.1.08 11.39l-7.02 1.88c-2.2.64-4.45 1.14-6.72 1.5l-.86-5.07h-.12l-2.21-11.44s-3.29-1.25-4.5-1.59a3.21 3.21 0 0 0-3.44.55 4.4 4.4 0 0 0-1.49 3.34c.18.4.32.83.42 1.26.04.42-1.04.38-1.73.38s-.79-1.26-.25-2.72a19.9 19.9 0 0 1 1.57-3.25c.47-.93 1.07-1.77 1.78-2.51 0 0 .12-.3 1.08-.21.96.08 6.27.37 6.27.37l.05-1.97c5.77-.8 11.6-1.2 17.43-1.17v1.6a19.14 19.14 0 0 1 7.01-1.74.78.78 0 0 1 .67.33c.29.38 2.07 2.61 2.28 2.93.58.84 1.1 1.7 1.57 2.61a5.45 5.45 0 0 1-.74 1.6z"/><path fill="#F06351" d="m48.64 17.83.86 1.12c.58.84 1.1 1.7 1.57 2.6a5.44 5.44 0 0 1-.74 1.55c-.38.38-1.16.63-1.29-.5-.13-1.13-.18-1.88-.18-1.88s-1.66-2.98-2.28-3.01c-.62-.04-5.02 3.01-6.19 4.34-1 1.12-1.2 1.05-1.2 3.02 0 1.3.14 5.78.1 9.76 1.57.17 3.86.6 4.55 1.63 0 0-.25-6.24 6.73-2.97 0 0 .24-8.5 9.87-6.33a37.71 37.71 0 0 0-11.8-9.33zm-9.07-2.02C39.6 11 39.2 6.2 38.36 1.45c0 0-.13-1.13-.75-.2-.51 1.1-.86 2.26-1.03 3.47a60.54 60.54 0 0 0-11.05.3c-.7-2.4-1.91-3.48-2.49-3.2-.57.3-.64 2.85-.64 2.85l-.29 12.3c5.79-.8 11.62-1.19 17.46-1.16z"/><path fill="#E55645" d="M39.07 39.94c.1-.93.17-2.16.2-3.52l-7.02 1.88c-2.2.65-4.45 1.17-6.72 1.54l.96 4.34c0 .1 0 .2.06.29 1.3.85 2.67 1.6 4.1 2.22 2.08-1 4.07-2.21 5.93-3.6v.06c.98-.93 1.82-2.01 2.49-3.2z"/><path fill="#000" d="M27.57 13.1c-.05-.1.86.58 1.21.8.35.2.53.36.53.5 0 .15-.23.3-.54.3-.3 0-.8-.1-.86-.22-.07-.13.52 0 .81 0h.25c-.53-.4-1-.86-1.4-1.39zm6.46.09s-.87 1.11-.94 1.16c-.08.06-.15.3.16.26.36-.06.7-.14 1.05-.25.1-.05.06-.17-.1-.15-.17.01-.59.04-.86.1l.73-1.11s.03-.1-.04-.01zm-2.71 5.31c.4-.18.73-.48.94-.87.24-.57 0-.8-.38-.87a2.1 2.1 0 0 0-1.5.3c-.34.32-.3.63 0 .87.28.23.6.42.94.57z"/><path fill="#F06351" d="M31.01 19.6a1.48 1.48 0 0 1-1.26.85c-.47.04-.94-.1-1.32-.39-.18-.1-.33-.23-.46-.39a.86.86 0 0 0-.3-.22c-.01 0 .64 3.58 2.2 4.15 1.57.57 1.86-.66 1.9-1a4.84 4.84 0 0 0-.7-2.8c0-.27-.02-.1-.06-.2z"/><path fill="#000" d="M29.55 20.58a3 3 0 0 1-2.03-1.24.13.13 0 0 1 0-.17.12.12 0 0 1 .09-.04.12.12 0 0 1 .08.04 2.78 2.78 0 0 0 1.82 1.14 1.8 1.8 0 0 0 1.42-.87l.12-.17.08.2s.33.65.86.69c.54.03.92-.37 1.4-1.12a.12.12 0 0 1 .17-.03.13.13 0 0 1 .04.17c-.57.85-1.11 1.26-1.62 1.22a1.33 1.33 0 0 1-.97-.63 1.95 1.95 0 0 1-1.46.81z"/><path fill="#FDC305" d="M31.24 32.28a3.24 3.24 0 0 0 3.23-3.26c0-1.8-1.45-3.26-3.23-3.26A3.24 3.24 0 0 0 28 29.02c0 1.8 1.44 3.26 3.23 3.26z"/><path fill="#111" d="m35.52 26.37-2.7 1.14 1-4.9-6.47 8.49 2.7-1.14-1 4.9 6.47-8.49zm-6.37 3.33 3.58-4.7-.7 3.47 1.73-.7-3.61 4.7.7-3.47-1.7.7zm-1.21-1.28c.54 0 .97-.43.97-.97a.97.97 0 0 0-.97-.97.97.97 0 0 0-.96.97c0 .54.43.97.96.97zm5.62 3.53c.38 0 .68-.3.68-.69 0-.38-.3-.68-.68-.68a.68.68 0 0 0 0 1.37zm.83-1.89a.3.3 0 0 0 .3-.3.3.3 0 0 0-.3-.3.3.3 0 0 0-.3.3c0 .17.13.3.3.3z"/><path fill="#F06351" d="M39.52 17.39a49.73 49.73 0 0 0-4.38 4.52 27.56 27.56 0 0 1-4.58 4.26c-.19-.46-1.4-1.32-1.4-1.32s-2.7-1.87-4.48-3.34c-.96-.8-1.86-1.67-2.7-2.6l-1.73-.1A19.5 19.5 0 0 0 30.6 26.5c.74-.12 2.82-1.62 4.38-2.85a49.89 49.89 0 0 0 5.17-5.13c.43-.52.76-1.1.98-1.74-.98.33-1.6.62-1.6.62zm-17.18 5.94s-3.29-1.25-4.5-1.59a3.21 3.21 0 0 0-3.44.55 4.4 4.4 0 0 0-1.49 3.34c.18.4.32.83.42 1.26.04.42-1.04.38-1.73.38s-.79-1.26-.25-2.72a19.9 19.9 0 0 1 1.57-3.25C8.22 23.76 0 29.46 0 29.46c2.35-.14 4.71-.07 7.06.21 4.52.46 4.3 4.06 4.3 4.06 1.6-.44 3.21-.76 4.85-.96 1.83-.13 1.96 1.84 1.96 1.84l.45 3.35a15.8 15.8 0 0 1 2.29-2.05 5.19 5.19 0 0 1 3.77-1.13l-2.34-11.45z"/></svg><svg fill="none" viewBox="0 0 101 18" id="ce-logo-text" xmlns="http://www.w3.org/2000/svg"><g fill="#111" clip-path="url(#fa)"><path d="M1.264 16.538A6.865 6.865 0 0 1 0 12.231V5.846a6.95 6.95 0 0 1 1.185-4.384C2.055.462 3.398 0 5.374 0s3.24.462 4.03 1.308a5.422 5.422 0 0 1 1.186 3.769v1.538H6.718V4.846a3.693 3.693 0 0 0-.238-1.538 1.12 1.12 0 0 0-.456-.473 1.163 1.163 0 0 0-.65-.143c-.553 0-.948.154-1.106.539a4.846 4.846 0 0 0-.237 1.692v8.23a3.111 3.111 0 0 0 .316 1.616c.158.385.553.539 1.106.539s.87-.154 1.027-.539c.18-.52.26-1.067.238-1.615v-1.846h3.872v1.538a5.775 5.775 0 0 1-1.185 3.846c-.79.923-2.134 1.385-4.031 1.385-1.897-.077-3.32-.539-4.11-1.539zM15.253.23h4.504l3.32 17.54H19.44l-.632-3.693H16.2l-.632 3.692h-3.715l3.4-17.538zm3.24 11.54-.948-6.847-.949 6.846h1.897zm7.35-8.616h-2.687V.23h9.404v2.846h-2.687v14.692h-4.03V3.154zM39.752.23h6.955v1.847h-4.505v5.77h3.635v1.768h-3.635v6.462h4.505v1.77h-7.034V.23h.079zm9.009 0H50.5l5.137 11.616V.231h2.055v17.538h-1.58l-5.217-12v12h-2.134V.231zm11.302 0h6.954v1.847h-4.504v5.77h3.635v1.768h-3.635v6.462h4.504v1.77h-6.954V.23zm9.009 0h3.635a6.451 6.451 0 0 1 4.03 1.078c.87.692 1.265 1.923 1.265 3.538 0 2.23-.71 3.616-2.212 4.077l2.528 8.77h-2.45l-2.37-8.231h-1.976v8.23h-2.529V.231h.079zm3.477 7.54a3.524 3.524 0 0 0 2.292-.616c.474-.385.711-1.154.711-2.308a4.848 4.848 0 0 0-.237-1.692 1.975 1.975 0 0 0-.869-.923 3.69 3.69 0 0 0-1.739-.308h-1.106v5.77h.948v.076zm8.614 8.692A7.613 7.613 0 0 1 80.058 12V6.154a12.26 12.26 0 0 1 .395-3.308 3.916 3.916 0 0 1 1.502-2c.882-.508 1.9-.75 2.924-.692 1.66 0 2.845.384 3.556 1.23a5.771 5.771 0 0 1 1.107 3.847v.615H87.17v-.538a11.03 11.03 0 0 0-.158-1.923 1.533 1.533 0 0 0-.633-1A2.493 2.493 0 0 0 84.878 2a2.417 2.417 0 0 0-1.58.462c-.187.152-.338.34-.447.551a1.701 1.701 0 0 0-.186.68 14.01 14.01 0 0 0-.158 2.076v6.539a6.818 6.818 0 0 0 .474 2.923c.316.615.949.846 1.897.846.374.045.754-.018 1.092-.182.337-.165.617-.422.805-.741a6.908 6.908 0 0 0 .553-3.077v-1.23h-2.292v-1.77h4.584v8.692h-1.58l-.238-2a3.143 3.143 0 0 1-1.226 1.658 3.288 3.288 0 0 1-2.014.573 4.046 4.046 0 0 1-1.899-.352 3.932 3.932 0 0 1-1.5-1.186zm13.515-4.847L90.805.308h2.371l2.766 8.461L98.63.308H101l-3.873 11.307v6.154h-2.37v-6.154h-.08z"/></g><defs><clipPath id="fa"><path fill="#fff" d="M0 0h101v18H0z"/></clipPath></defs></svg><svg fill="none" viewBox="0 0 24 19" id="check-sign" xmlns="http://www.w3.org/2000/svg"><path d="M9 15.499 1.4 6.901 0 8.485l9 10.182 15-16.97L22.6 0 9 15.499z" fill="#68B738"/></svg><svg fill="none" viewBox="0 0 18 14" id="envelop-icon" xmlns="http://www.w3.org/2000/svg"><path stroke="#000" stroke-linecap="round" stroke-linejoin="round" d="M.5 5.5v8h17v-8M.5.5h17v2L9 8.5l-8.5-6v-2z"/></svg><svg viewBox="0 0 60 60" id="htmlacademy" xmlns="http://www.w3.org/2000/svg"><path fill="#2E368F" d="M30.2 5H30L10.3 7.1v36.2L30 55l19.7-11.7V7.1L30.2 5zm17 36.8L30 52 12.8 41.8V27l17.1 10.2V39l-11.7-7v1.8L30 40.9v1.9l-11.8-7v1.8l11.8 7 11.9-7.1v-7.6l5.3-3.2v15.1zm-.1-17-4.7 2.8-2.2 1.3-10.3-6.1v1.8l8.8 5.3h-.1l-.2.1-1.3.7-7.3-4.3v1.8l5.8 3.4-1.4.9-4.3-2.6v1.8l2.9 1.7-2.9 1.7-17-10.1 17-10.2 17.2 10zm.1-1.8L29.9 12.8 12.8 23V9.4L30 7.6l17.2 1.8V23z"/></svg><svg fill="none" viewBox="0 0 80 84" id="icon-gift" xmlns="http://www.w3.org/2000/svg"><path fill="#fff" d="M65.657 36.757H14.391a3.266 3.266 0 0 1-3.263-3.262v-9.772a3.267 3.267 0 0 1 3.263-3.263h51.265a3.266 3.266 0 0 1 3.262 3.263v9.773a3.264 3.264 0 0 1-3.26 3.261zM14.391 22.96a.773.773 0 0 0-.763.763v9.773c0 .42.342.762.763.762h51.265c.42 0 .762-.342.762-.762v-9.773a.772.772 0 0 0-.762-.763H14.391z"/><path fill="#fff" d="M58.508 70.236h-36.97a6.289 6.289 0 0 1-6.282-6.282V35.507a1.25 1.25 0 0 1 2.5 0v28.447a3.786 3.786 0 0 0 3.782 3.782h36.97a3.786 3.786 0 0 0 3.78-3.782V35.507a1.25 1.25 0 0 1 2.5 0v28.447a6.288 6.288 0 0 1-6.28 6.282z"/><path fill="#fff" d="M40.023 70.236c-.69 0-1.25-.56-1.25-1.25V35.507a1.25 1.25 0 0 1 2.5 0v33.478a1.25 1.25 0 0 1-1.25 1.251zm-15.601-47.28c-3.913-2.12-5.373-7.027-3.255-10.94 2.117-3.912 7.024-5.372 10.938-3.256C38.07 11.99 41.29 21 41.422 21.383l-2.358.83c-.03-.086-3.038-8.486-8.148-11.255a5.578 5.578 0 0 0-7.55 2.247 5.58 5.58 0 0 0 2.248 7.553l-1.192 2.198z"/><path fill="#fff" d="m55.622 22.956-1.19-2.199a5.541 5.541 0 0 0 2.688-3.31 5.53 5.53 0 0 0-.441-4.241 5.527 5.527 0 0 0-3.309-2.688 5.533 5.533 0 0 0-4.24.44c-5.11 2.768-8.118 11.169-8.148 11.254l-2.358-.83C38.758 21 41.977 11.99 47.94 8.76a8.015 8.015 0 0 1 6.144-.638 8.01 8.01 0 0 1 4.794 3.893 8.013 8.013 0 0 1 .639 6.144 8.028 8.028 0 0 1-3.895 4.797zm7.916 30.541H16.506a1.25 1.25 0 0 1 0-2.5h47.032a1.25 1.25 0 0 1 0 2.5z"/></svg><svg fill="none" viewBox="0 0 40 40" id="knob" xmlns="http://www.w3.org/2000/svg"><rect x="1" y="1" width="38" height="38" rx="19" fill="#fff"/><path d="m16 11-8 9 8 9V11zm16 9-8-9v18l8-9z" fill="#68B738"/><rect x="1" y="1" width="38" height="38" rx="19" stroke="#68B738" stroke-width="2"/></svg><svg fill="none" viewBox="0 0 16 16" id="phone-icon" xmlns="http://www.w3.org/2000/svg"><path stroke="#000" stroke-linecap="round" stroke-linejoin="round" d="M7 8h8.5m0 0L13 5.5M15.5 8 13 10.5M5.5.5v5h-3v5h3v5H3c-1.5 0-2.5-1-2.5-2.5V3C.5 1.5 1.5.5 3 .5h2.5z"/></svg><svg viewBox="0 0 32 12" id="program-arrow" xmlns="http://www.w3.org/2000/svg"><path d="m32 6-6.8 5.2V.8L32 6zM0 5h25.2v2H0z"/></svg><svg fill="none" viewBox="0 0 25 30" id="workflow-icon-change" xmlns="http://www.w3.org/2000/svg"><path fill="#fff" fill-rule="evenodd" d="M18.6 0c.4 0 .8 0 1.1.3 1 .9 2.1 2.9 3 6 1 3 1.8 7.2 1.8 12.7 0 .6-.4 1-1 1H20v9a1 1 0 1 1-2 0V1c0-.4.2-.8.6-1zM20 18h2.5A39.6 39.6 0 0 0 20 4.5V18zM6 0c.6 0 1 .4 1 1v28a1 1 0 1 1-2 0V1c0-.6.4-1 1-1z" clip-rule="evenodd"/><path fill="#fff" fill-rule="evenodd" d="M1.5 0c.6 0 1 .4 1 1v5.5c0 .6.2 1.3.7 2 .5.5 1.3 1 2.8 1a1 1 0 1 1 0 2c-2 0-3.4-.7-4.3-1.8A5 5 0 0 1 .5 6.5V1c0-.6.4-1 1-1z" clip-rule="evenodd"/><path fill="#fff" fill-rule="evenodd" d="M10.5 0a1 1 0 0 0-1 1v5.5a3 3 0 0 1-.7 2c-.5.5-1.3 1-2.8 1a1 1 0 0 0 0 2c2 0 3.4-.7 4.3-1.8a5 5 0 0 0 1.2-3.2V1c0-.6-.4-1-1-1z" clip-rule="evenodd"/></svg><svg fill="none" viewBox="0 0 30 32" id="workflow-icon-contents" xmlns="http://www.w3.org/2000/svg"><g clip-path="url(#oa)"><path fill="#fff" d="M27.78 2.77a.95.95 0 0 0-.92-.77c-4.94.03-16.95.92-21.8 8.38-2.51 3.88-2.73 8.91-.64 14.96l.07.13a25.93 25.93 0 0 0-1.04 3.32c-.11.54.21 1.07.72 1.19l.2.02c.43 0 .82-.32.91-.79.02-.1 2.4-10.37 10.85-16.38.44-.3.55-.93.26-1.38a.9.9 0 0 0-1.3-.28c-4.78 3.4-7.73 8-9.47 11.65-1.24-4.57-.91-8.37.99-11.3 3.74-5.76 12.62-7.15 17.98-7.45-1.15 1.8-2.41 5.1-2.41 10.93 0 3.12-.83 5.52-2.47 7.14-2.62 2.6-6.88 2.83-10 2.58-.5-.04-.96.38-1 .93-.04.55.35 1.03.87 1.07.62.05 1.28.08 1.98.08 3.17 0 6.87-.66 9.43-3.2 2.03-2 3.06-4.9 3.06-8.6 0-9.1 3.22-11.1 3.23-11.1.4-.21.6-.68.5-1.13z"/></g><defs><clipPath id="oa"><path fill="#fff" d="M0 0h30v32H0z"/></clipPath></defs></svg><svg fill="none" viewBox="0 0 26 29" id="workflow-icon-powder" xmlns="http://www.w3.org/2000/svg"><path fill="#fff" d="M10.88 0c-1.64 0-2.9 1.36-2.9 3.08s1.26 3.08 2.9 3.08c1.63 0 2.9-1.36 2.9-3.08S12.5 0 10.88 0zm0 1.18c1 0 1.72.84 1.72 1.9 0 1-.8 1.9-1.72 1.9-1 0-1.73-.84-1.73-1.9 0-1 .78-1.9 1.72-1.9zM0 24.74c0 1.18.4 2.18 1.36 3 1 .84 2.17.77 2.17.77h19.04c.77 0 1.8-.38 2.62-1.45.85-1 .8-2.36.8-2.36V7.5c0-.44-.12-.6-.75-.6-.64 0-.69.27-.69.59V24.7c-.02.3-.07 1.08-.74 1.72-.74.62-1.45.54-1.45.54s-18.13 0-19.03-.03a2.14 2.14 0 0 1-1.45-.9c-.51-.73-.41-1.63-.41-1.63V7.18c0-.46-.24-.64-.73-.64S0 6.72 0 7.12v17.62zM16.31 8.43c-1.08.23-2.17.38-4.26 2.35-2.08 2-3.62 1.9-5.16 1.82-1.54-.1-3.17-1.54-3.45-1.9-.33-.36-.9-.12-1.08.11-.16.24-.16.64.1 1 1.27 1.18 2.45 2.08 4.72 2.26a7.5 7.5 0 0 0 5.89-2.26c1.45-1.45 2.17-1.72 3.26-1.9a6.3 6.3 0 0 1 5.08 1.26c1 1.1 1.26.78 1.54.48.54-.72-.23-1.27-1.1-1.9a7.24 7.24 0 0 0-5.52-1.28l-.02-.04zm-9.06 7.16c-1.18 0-2.08 1-2.08 2.26 0 1.27.9 2.27 2.08 2.27 1.18 0 2.08-1 2.08-2.27s-.9-2.26-2.08-2.26zm11.78.78c-1.54 0-2.8 1.36-2.8 2.99 0 1.63 1.26 2.99 2.8 2.99 1.54 0 2.81-1.36 2.81-3 0-1.62-1.27-2.98-2.8-2.98zm0 1.45c.8 0 1.45.7 1.45 1.54a1.5 1.5 0 0 1-1.45 1.54c-.8 0-1.45-.7-1.45-1.54 0-.86.65-1.54 1.45-1.54z"/></svg><svg fill="none" viewBox="0 0 26 31" id="workflow-icon-result" xmlns="http://www.w3.org/2000/svg"><path fill="#fff" d="M5.54 0c-1.06 0-1.06 1.58 0 1.58h6.64v1.6C5.38 3.63 0 9.42 0 16.49c0 4.02 1.74 7.64 4.5 10.07.47.43.54 1.18.1 1.64l-1.53 1.55c-.74.69.36 1.75 1.03 1l2-2.03c.35-.34.87-.43 1.3-.21a12.7 12.7 0 0 0 11.07.06c.43-.21.96-.13 1.3.21l1.94 1.97c.68.64 1.65-.31 1.04-1l-1.45-1.48c-.44-.45-.38-1.2.1-1.63A13.46 13.46 0 0 0 26 16.47C26 9.4 20.59 3.6 13.78 3.2V1.6h6.64c1.06 0 1.06-1.59 0-1.59H5.54zm-4.1 16.47A11.7 11.7 0 0 1 13 4.65c6.38 0 11.55 5.3 11.55 11.82 0 6.55-5.17 11.85-11.55 11.85-6.38 0-11.57-5.3-11.57-11.85zm10.75-8.09c0-1.1 1.66-1.1 1.66 0v8.63a.84.84 0 0 1-.85.85.81.81 0 0 1-.8-.8V8.39zM7.22 11a1.16 1.16 0 0 0 1.16-1.15A1.15 1.15 0 0 0 7.22 8.7a1.16 1.16 0 0 0-1.05 1.14A1.15 1.15 0 0 0 7.22 11zm11.55 0a1.16 1.16 0 0 0 1.16-1.15 1.15 1.15 0 0 0-1.16-1.15 1.16 1.16 0 0 0-1.05 1.14A1.15 1.15 0 0 0 18.77 11zM8.37 23.59c0 1.53-2.31 1.53-2.31 0s2.32-1.53 2.32 0zM13 27.03a1.17 1.17 0 0 0 1.17-.68 1.14 1.14 0 0 0-.7-1.56 1.17 1.17 0 0 0-1.22.32 1.15 1.15 0 0 0 .75 1.92zM4.91 16.64a1.14 1.14 0 0 1-.68 1.17 1.17 1.17 0 0 1-1.57-.7 1.14 1.14 0 0 1 .32-1.2 1.16 1.16 0 0 1 1.93.73zm17.33 1.15a1.16 1.16 0 0 0 1.17-.68 1.14 1.14 0 0 0-.7-1.55 1.17 1.17 0 0 0-1.22.32 1.15 1.15 0 0 0 .75 1.91zm-2.31 5.8c0 1.53-2.32 1.53-2.32 0s2.32-1.53 2.32 0z"/></svg></svg>