  <svg xmlns="http://www.w3.org/2000/svg">

    <svg id="ce-logo-sign">
      <style>
        .ce-logo-sign-desktop {
          display: none;
        }

        .ce-logo-sign-desktop-sparks {
          display: none;
        }

        @media (min-width: 60px) {
          .ce-logo-sign-mobile {
            display: none;
          }

          .ce-logo-sign-desktop {
            display: inline;
          }
        }

        @media (min-width: 72px) {
          .ce-logo-sign-desktop-sparks {
            display: inline;
          }
        }
      </style>
      <svg class="ce-logo-sign-mobile" fill="none" viewBox="0 0 34 38">
        <g clip-path="url(#a)">
          <path fill="#FDC305" d="M6.07 20.72v-2.26c6.68-.92 13.42-1.36 20.17-1.33 0 .6 0 1.21-.06 1.82a25.52 25.52 0 0 1 6-1.82A16.67 16.67 0 0 0 .19 20.39l5.88.33ZM27.24 24.23c-1.16 1.28-1.39 1.2-1.39 3.45v9.18A16.64 16.64 0 0 0 33.32 23a17.3 17.3 0 0 0-.32-3.1c-2.07 1.23-4 2.68-5.76 4.33ZM6.36 25.72s-3.79-1.44-5.19-1.83A8.54 8.54 0 0 0 0 23.61a16.65 16.65 0 0 0 8.68 14L6.36 25.72Z"/>
          <path fill="#F06351" d="M26.29 17.12A89.8 89.8 0 0 0 24.89.65S24.75-.64 24 .41c-.59 1.25-1 2.58-1.2 3.94a70.34 70.34 0 0 0-12.77.34C9.24 2 7.85.75 7.18 1c-.67.25-.72 3.31-.72 3.31l-.33 14.1c6.68-.9 13.42-1.34 20.16-1.29Z"/>
          <path fill="#000" d="M12.41 14c0-.09 1 .68 1.41.92.41.24.61.42.61.59 0 .17-.27.34-.63.34s-.91-.12-1-.27h1.23A8.34 8.34 0 0 1 12.41 14ZM19.89 14.11l-1.09 1.33c0 .06-.17.35.18.3.41-.06.82-.16 1.22-.29.11 0 .07-.19-.11-.17-.18.02-.69.05-1 .11l.84-1.26s.07-.13-.04-.02ZM16.75 20.2c.46-.2.85-.56 1.09-1 .28-.65 0-.91-.44-1-.6-.11-1.22.01-1.74.34-.39.36-.34.72-.05 1 .35.27.73.49 1.14.66Z"/>
          <path fill="#F06351" d="M16.35 21.45c-.11.23-.27.43-.46.6-.28.23-.63.36-1 .38a2.15 2.15 0 0 1-1.47-.43 2.3 2.3 0 0 1-.53-.44c-.1-.11-.22-.2-.36-.26 0 0 .75 4.1 2.57 4.75 1.82.65 2.14-.75 2.2-1.13a5.61 5.61 0 0 0-.82-3.23c-.02-.31-.03-.11-.13-.24Z"/>
          <path fill="#000" d="M14.71 22.59a3.44 3.44 0 0 1-2.36-1.47.14.14 0 0 1 .03-.15.14.14 0 0 1 .2 0c.5.7 1.26 1.16 2.11 1.3a2.1 2.1 0 0 0 1.63-1l.14-.19.1.21s.37.76 1 .8c.63.04 1.05-.41 1.61-1.28a.14.14 0 0 1 .2 0 .15.15 0 0 1 .05.2c-.64 1-1.27 1.44-1.88 1.4a1.55 1.55 0 0 1-1.12-.76 2.26 2.26 0 0 1-1.71.94Z"/>
          <path fill="#F06351" d="M26.24 18.92a58.63 58.63 0 0 0-5.07 5.19A31.63 31.63 0 0 1 15.88 29c-.22-.53-1.62-1.51-1.62-1.51s-3.13-2.14-5.18-3.82a34.14 34.14 0 0 1-3.13-3l-2-.11c2.89 4.2 7.12 7.3 12 8.8.86-.14 3.27-1.86 5.07-3.26a58.13 58.13 0 0 0 5.94-5.89c.5-.59.89-1.27 1.14-2-1.1.39-1.86.71-1.86.71Z"/>
        </g>
        <defs>
          <clipPath id="a">
            <path fill="#fff" d="M0 0h33.32v37.61H0z"/>
          </clipPath>
        </defs>
      </svg>
      <svg class="ce-logo-sign-desktop" viewBox="0 0 71 59">
        <path fill="#FDC305" d="M59.88 23.8a25.43 25.43 0 0 0-8.05-10.37 25.72 25.72 0 0 0-25.29-3.35A25.59 25.59 0 0 0 16.03 18a25.3 25.3 0 0 0-3.55 25.05 25.42 25.42 0 0 0 7.9 10.49 25.72 25.72 0 0 0 12.13 5.18c-.58-2.07-1.17-4.36-1.69-6.8a32.4 32.4 0 0 0 4.76 2.54s.12 2.14.28 4.53c1.79.03 3.58-.13 5.33-.47a2.1 2.1 0 0 1 0-.75c.3-1.85 1.1-5.2 1.25-7.35a15.12 15.12 0 0 0 2.9-3.68l-.06.44c-.55 4.22-1.7 8.74-2.4 9.98-.23.42-.5.8-.83 1.15a25.73 25.73 0 0 0 16.96-13.16 25.27 25.27 0 0 0 .87-21.34Zm-1.47 3.77c-.44.42-1.35.71-1.5-.58-.15-1.29-.19-2.2-.19-2.2s-1.93-3.4-2.65-3.43c-.72-.04-5.83 3.44-7.18 4.96-1.17 1.28-1.4 1.19-1.4 3.44 0 1.7.22 8.1.1 13l-8.15 2.15c-2.56.73-5.17 1.3-7.8 1.71l-1-5.78h-.14l-2.57-13.07s-3.8-1.42-5.2-1.81a3.79 3.79 0 0 0-4.01.62 5.03 5.03 0 0 0-1.73 3.82c.21.46.37.95.48 1.44.05.48-1.2.43-2 .43s-.92-1.43-.29-3.1c.5-1.3 1.1-2.54 1.82-3.72a11.78 11.78 0 0 1 2.07-2.86s.14-.34 1.25-.24c1.11.1 7.28.42 7.28.42l.05-2.25c6.7-.92 13.47-1.36 20.24-1.33v1.82a22.67 22.67 0 0 1 8.14-1.98.92.92 0 0 1 .77.38c.34.43 2.41 2.98 2.65 3.34.67.96 1.29 1.95 1.83 2.98a6.17 6.17 0 0 1-.87 1.83Z"/>
        <path fill="#F06351" d="m56.46 21.5 1 1.27c.68.96 1.29 1.95 1.83 2.98a6.17 6.17 0 0 1-.86 1.77c-.44.42-1.35.71-1.5-.58-.15-1.29-.2-2.14-.2-2.14s-1.94-3.4-2.66-3.44c-.72-.04-5.83 3.44-7.18 4.96-1.17 1.28-1.4 1.19-1.4 3.44 0 1.49.17 6.6.13 11.14 1.81.2 4.47.7 5.27 1.86 0 0-.29-7.12 7.81-3.39 0 0 .28-9.71 11.46-7.22a43.67 43.67 0 0 0-13.7-10.65ZM45.93 19.2c.04-5.5-.43-11-1.4-16.4 0 0-.15-1.3-.87-.24-.6 1.26-1 2.6-1.2 3.97a71.46 71.46 0 0 0-12.82.33c-.82-2.72-2.22-3.96-2.89-3.64-.67.33-.75 3.26-.75 3.26l-.33 14.04c6.71-.92 13.49-1.36 20.26-1.33Z"/>
        <path fill="#E55645" d="M45.35 46.74c.13-1.06.2-2.47.24-4.03l-8.15 2.16a64.43 64.43 0 0 1-7.8 1.75l1.11 4.96c0 .11 0 .22.07.33a32.4 32.4 0 0 0 4.76 2.53 42.49 42.49 0 0 0 6.88-4.1v.06a15.12 15.12 0 0 0 2.9-3.66Z"/>
        <path fill="#000" d="M32 16.09c-.05-.1 1 .67 1.41.91.41.24.61.42.61.59 0 .17-.26.33-.62.33s-.92-.11-1-.25c-.08-.14.6 0 .94 0h.3A8.05 8.05 0 0 1 32 16.09ZM39.5 16.2s-1 1.27-1.09 1.33c-.09.06-.17.33.2.29.4-.07.81-.16 1.21-.28.11-.06.07-.2-.12-.18-.19.02-.68.05-1 .1l.85-1.25s.03-.12-.05-.01ZM36.36 22.26c.47-.2.85-.55 1.1-1 .27-.65 0-.9-.45-.98-.6-.11-1.23 0-1.75.33-.39.37-.34.73 0 1 .34.26.7.48 1.1.65Z"/>
        <path fill="#F06351" d="M36 23.5c-.11.23-.27.44-.46.6-.28.23-.63.36-1 .38a2.2 2.2 0 0 1-1.54-.44 2 2 0 0 1-.53-.44 1 1 0 0 0-.36-.25s.75 4.08 2.57 4.73c1.82.66 2.16-.75 2.21-1.13a5.55 5.55 0 0 0-.82-3.21c0-.3-.02-.1-.07-.23Z"/>
        <path fill="#000" d="M34.3 24.64a3.52 3.52 0 0 1-2.35-1.42.15.15 0 0 1 0-.2.14.14 0 0 1 .2 0 3.21 3.21 0 0 0 2.11 1.3 2.12 2.12 0 0 0 1.64-.99l.14-.19.1.22s.38.75 1 .8c.62.03 1.06-.42 1.63-1.29a.14.14 0 0 1 .2-.04.14.14 0 0 1 .04.2c-.67.97-1.3 1.44-1.89 1.4a1.56 1.56 0 0 1-1.12-.72 2.25 2.25 0 0 1-1.7.93Z"/>
        <path fill="#FDC305" d="M36.26 38a3.73 3.73 0 0 0 3.75-3.73 3.73 3.73 0 0 0-3.75-3.72 3.73 3.73 0 0 0-3.75 3.72A3.73 3.73 0 0 0 36.26 38Z"/>
        <path fill="#111" d="m41.23 31.25-3.13 1.3 1.15-5.59-7.5 9.68 3.13-1.3-1.15 5.6 7.5-9.7Zm-7.39 3.8L38 29.67l-.8 3.97 2-.82-4.2 5.38.81-3.97-1.97.8ZM32.44 33.59c.62 0 1.12-.5 1.12-1.11 0-.62-.5-1.12-1.12-1.12a1.12 1.12 0 1 0 0 2.22ZM38.96 37.61c.44 0 .8-.35.8-.78a.79.79 0 0 0-.8-.78.79.79 0 0 0-.79.78c0 .43.36.78.8.78ZM39.92 35.46c.2 0 .35-.15.35-.35 0-.19-.15-.34-.35-.34-.2 0-.35.15-.35.34 0 .2.16.35.35.35Z"/>
        <path fill="#F06351" d="M45.88 20.99a57.2 57.2 0 0 0-5.09 5.17 31.78 31.78 0 0 1-5.3 4.86c-.23-.53-1.64-1.51-1.64-1.51s-3.14-2.13-5.2-3.8a31.8 31.8 0 0 1-3.14-2.98l-2-.11a22.62 22.62 0 0 0 12 8.76c.86-.13 3.28-1.85 5.1-3.25a57.45 57.45 0 0 0 6-5.86c.49-.59.88-1.26 1.13-1.99-1.14.38-1.86.7-1.86.7Z"/>
        <path fill="#F06351" d="M25.93 27.77s-3.8-1.42-5.2-1.81a3.79 3.79 0 0 0-4 .62 5.03 5.03 0 0 0-1.74 3.82c.21.46.37.95.48 1.44.05.48-1.2.43-2 .43s-.92-1.43-.29-3.1c.5-1.3 1.1-2.54 1.82-3.72-5.45 2.82-15 9.33-15 9.33a46.2 46.2 0 0 1 8.19.24c5.25.52 5 4.63 5 4.63a38.9 38.9 0 0 1 5.63-1.1c2.12-.14 2.27 2.1 2.27 2.1l.53 3.83c.8-.87 1.7-1.65 2.65-2.34a6.1 6.1 0 0 1 4.38-1.3l-2.72-13.07Z"/>
        <path class="ce-logo-sign-desktop-sparks" fill="#FDC305" d="m65.22 3.47-8.46 9.37-1.22-1.98L63.7 0l1.53 3.47ZM62.65 17.12l5.54-4.08-.78-3.7-5.4 4.77.64 3.01ZM59.92 48.97l6.13 3.16 3.01-2.33-6.69-2.72-2.45 1.9ZM1.95 5.92 5.02 2.6l9.29 8.93-1.22 2.26L1.95 5.92ZM7.38 16.15l-4.7-3.1-2.4 3.83 5.15 2.38 1.95-3.11ZM13.91 52.13l-4.55 3.32 2.8 3.55 4.02-3.99-2.27-2.88Z"/>
      </svg>
    </svg>

    <symbol fill="none" viewBox="0 0 101 18" id="ce-logo-text">
      <g fill="#111" clip-path="url(#a)"><path d="M1.264 16.538A6.865 6.865 0 0 1 0 12.231V5.846a6.95 6.95 0 0 1 1.185-4.384C2.055.462 3.398 0 5.374 0s3.24.462 4.03 1.308a5.422 5.422 0 0 1 1.186 3.769v1.538H6.718V4.846a3.693 3.693 0 0 0-.238-1.538 1.12 1.12 0 0 0-.456-.473 1.163 1.163 0 0 0-.65-.143c-.553 0-.948.154-1.106.539a4.846 4.846 0 0 0-.237 1.692v8.23a3.111 3.111 0 0 0 .316 1.616c.158.385.553.539 1.106.539s.87-.154 1.027-.539c.18-.52.26-1.067.238-1.615v-1.846h3.872v1.538a5.775 5.775 0 0 1-1.185 3.846c-.79.923-2.134 1.385-4.031 1.385-1.897-.077-3.32-.539-4.11-1.539ZM15.253.23h4.504l3.32 17.54H19.44l-.632-3.693h-2.608l-.632 3.692h-3.715L15.253.231Zm3.24 11.54-.948-6.847-.949 6.846h1.897ZM25.843 3.154h-2.687V.23h9.404v2.846h-2.687v14.692h-4.03V3.154ZM39.752.23h6.955v1.847h-4.505v5.77h3.635v1.768h-3.635v6.462h4.505v1.77h-7.034V.23h.079ZM48.761.23H50.5l5.137 11.616V.231h2.055v17.538h-1.58l-5.217-12v12h-2.134V.231ZM60.063.23h6.954v1.847h-4.504v5.77h3.635v1.768h-3.635v6.462h4.504v1.77h-6.954V.23ZM69.072.23h3.635a6.451 6.451 0 0 1 4.03 1.078c.87.692 1.265 1.923 1.265 3.538 0 2.23-.71 3.616-2.212 4.077l2.528 8.77h-2.45l-2.37-8.231h-1.976v8.23h-2.529V.231h.079Zm3.477 7.54a3.524 3.524 0 0 0 2.292-.616c.474-.385.711-1.154.711-2.308a4.848 4.848 0 0 0-.237-1.692 1.975 1.975 0 0 0-.869-.923 3.69 3.69 0 0 0-1.739-.308h-1.106v5.77h.948v.076ZM81.163 16.462A7.613 7.613 0 0 1 80.058 12V6.154a12.26 12.26 0 0 1 .395-3.308 3.916 3.916 0 0 1 1.502-2c.882-.508 1.9-.75 2.924-.692 1.66 0 2.845.384 3.556 1.23a5.771 5.771 0 0 1 1.107 3.847v.615H87.17v-.538a11.03 11.03 0 0 0-.158-1.923 1.533 1.533 0 0 0-.633-1A2.493 2.493 0 0 0 84.878 2a2.417 2.417 0 0 0-1.58.462c-.187.152-.338.34-.447.551a1.701 1.701 0 0 0-.186.68 14.01 14.01 0 0 0-.158 2.076v6.539a6.818 6.818 0 0 0 .474 2.923c.316.615.949.846 1.897.846.374.045.754-.018 1.092-.182.337-.165.617-.422.805-.741a6.908 6.908 0 0 0 .553-3.077v-1.23h-2.292v-1.77h4.584v8.692h-1.58l-.238-2a3.143 3.143 0 0 1-1.226 1.658 3.288 3.288 0 0 1-2.014.573 4.046 4.046 0 0 1-1.899-.352 3.932 3.932 0 0 1-1.5-1.186ZM94.678 11.615 90.805.308h2.371l2.766 8.461L98.63.308H101l-3.873 11.307v6.154h-2.37v-6.154h-.08Z"/>
      </g>
      <defs><clipPath id="a"><path fill="#fff" d="M0 0h101v18H0z"/></clipPath></defs>
    </symbol>


  </svg>
