<svg xmlns="http://www.w3.org/2000/svg"><style>:root svg:not(:target){display:none}</style><svg fill="none" viewBox="0 0 268 112" id="cat-icon-pro"><path fill="#000" d="M246.2 11.5c2.3-3.7 5.4-6.8 9-9.2 2-1.4 3.2-1.4 4.4 1.2 1.6 3.8 3 7.8 1.8 12a4.6 4.6 0 00.8 4.2l3.2 4.6a12.5 12.5 0 011.8 12.4c-.7 2-.8 4.2-.4 6.2s.4 4 0 6a7.5 7.5 0 01-5.4 6.4c-2.5.5-4.8 2-6.4 4a2 2 0 01-1.8 1c-2.4.4-8.4-5-8.4-7.4v-1.2c.2-7.2-.2-7.8-6.8-10.8a8.8 8.8 0 01-3.6-2.4c-1.2-1.6-2.8-1.4-4.6-.8-1.8.6-2.8 1.8-2.6 3.8.6 4.9.8 9.7.6 14.6 0 .6.2 1.1.4 1.6 6.2 9 8.6 19.6 11.6 29.8 2.4 7.8 6.8 12 14.8 12.6 1.3.1 2.6.3 3.8.6a8.3 8.3 0 016.8 6.4c1.4 4.2.6 5.2-3.6 5.2h-13c-1.6.1-3.3-.5-4.6-1.6-2-1.7-4.3-3-6.8-4-2.7-1-5-2.8-6.8-5.2-2.3-3.3-5-6.3-8-9-5.6-5.8-11.6-11.4-16.8-17.4-4-4-6.2-9.5-6.4-15.2 0-1.8-.4-2.6-2.4-1.8-.6.4-1.3.6-2 .6-5.6 0-8.4 3.4-10.4 8.4-1.8 4.2-4.2 8.2-6.4 12.4-1.2 2.6-1.9 5.5-2 8.4 0 4.8 1.2 6.4 5.6 8 2.8 1 5.4 2 6.8 4.8 1.6 3.2 1.2 4-2.2 4.2h-13.6a3.8 3.8 0 01-3.8-2.2l-3.6-6a12.1 12.1 0 01-1.4-10.8c.9-3.5 1-7 .2-10.6a16.8 16.8 0 013.4-14c1.2-1.4 1.2-2-.8-2.4a100.1 100.1 0 01-23.8-8.4c-6.4-2.4-7.6-2-9.4 4.6-1.6 5.6-3.2 11.2-4.4 17a34 34 0 002.2 18.4c.8 2.4 3.2 2.2 5 2.8 4 1.2 7.4 2.8 9 7 1.4 3.2 1.2 3.6-2.2 3.6-3.4 0-6.8-.2-10.4 0-3 0-6-1-8.4-2.8-9.6-6.4-12.4-16.2-13.2-26.8-.4-6.6-4-11.8-8.2-16.8-.8-1-1.6-1.4-2.8-.6a88.6 88.6 0 01-13.4 6 53.4 53.4 0 00-24.4 17.6c-2.3 3-3.8 6.5-4.4 10.2-.6 3.6.4 5.2 4 6.2s5.4 3 5.8 6.8c.2 1.6-.4 2.4-2 2.4H49.4a3.3 3.3 0 01-2.6-1.6c-2.5-3.1-3.8-7-3.8-11 0-6.9.5-13.8 1.8-20.6a12.6 12.6 0 016.8-9.6c11.8-5.6 18-16.2 23.6-27.2 1.2-2.2.2-2.6-1.8-2.4A33 33 0 0058 40.1c-5.9 4.3-11.4 9-16.6 14.2-5.5 5.6-12.8 9-20.6 9.8C6.2 65-.6 56.7 0 43.5c.2-4.5 2-8.8 4.8-12.2a8.5 8.5 0 019-3c3 .8 3.8 2.4 2.6 5.4l-2 3.4a15 15 0 00-2 4c-2.2 6 .8 10.2 7 10.8 6.6.6 12-2.2 17-6.2 6-4.8 11.4-10.4 16-16.6A41.6 41.6 0 0181.2 13c4.6-.6 8.6-2.6 13-3.8a83 83 0 0125.4-3.6c4 .2 8-.6 11.6-2.2 9.8-4 20-4 30.2-2 8 1.6 16 3.6 23.8 5.6 4.7.9 9.5.7 14-.4C208 4.3 217 3 226 2.5c6-.3 11.9.9 17.2 3.4 4 1.8 4 1.8 3 5.6z"></path></svg><svg fill="none" viewBox="0 0 140 194" id="cat-icon-slim"><path fill="#000" d="M109.7 0h-.8a7 7 0 00-2.9 3.2 31 31 0 00-2.6 6.8 3.3 3.3 0 01-3 2.7A14.7 14.7 0 0090 20.2a54.6 54.6 0 00-3.7 8c-2.8 7.4-5 15-7.7 22.4-1.3 3.4-1.3 3.4-5.1 3.4-4.6 0-4.2-.7-4.3 4.3 0 1.6.5 2.4 2.2 2.3.5 0 1.3-.3 1.5.4.2.7-.5 1-1 1.4a18 18 0 01-8.6 4.9c-3.8 1-7.7 1.8-11.4 3a57.3 57.3 0 00-25 15.2 56 56 0 00-9.6 15.7A219.4 219.4 0 003.7 155c-1.3 8.6-2.2 17.3-3 26-.3 4.3-.7 8.6-.7 13h66.7c0-.9 0-1.8-.5-2.6a10 10 0 00-7.7-6.1c-1.4-.3-1.5-.7-.7-1.8 1.4-2 2.5-4 3.2-6.2 3.3-9.7 4.5-19.7 6.1-29.6A60 60 0 0174 126c2.8-5 6.6-9.3 11.2-12.7 1.6-1.3 1.7-1.3 2 .8l.3 4.4c.6 9.4.5 18.9-.3 28.3a123.3 123.3 0 004.2 47.2H118a10.8 10.8 0 00-8.5-8.9 18 18 0 00-7.5.4c-1.2.3-1.7 0-1.8-1.3-.8-10.6-.2-21.2 2-31.6 2.7-12 4.7-24.2 6.1-36.4.5-5 2.1-9.7 4.6-14 2.4-4.2 4.4-8.6 6.8-12.9a11.7 11.7 0 00.8-10.4c-.5-1.4-1-2.8-1.7-4.2-2-3.9-4-7.7-5.8-11.7-1-2-.8-2.2 1.4-2.3 3.2 0 3.2 0 3.3-3.3v-1.3c0-1.4-.5-2.1-2-2h-3c-1.4 0-1.8-.6-1.5-2a12.5 12.5 0 0110.3-8.8 44 44 0 0113.2.8 2 2 0 002.5-1.3l2.6-6a2 2 0 00-.2-2.2 71.1 71.1 0 00-24-21.5 3 3 0 01-.6-1.3c-.5-2.9-1.3-5.7-2.5-8.4a7 7 0 00-2.8-3.4z"></path></svg><svg viewBox="0 0 24 19" id="check-sign"><path d="M9 15.499L1.4 6.901 0 8.485l9 10.182 15-16.97L22.6 0 9 15.499z" fill="#68b738"></path></svg><svg fill="none" id="control-knob-256-active" viewBox="0 0 40 256"><rect width="4" height="256" x="18" fill="#9ecc82" rx="2"></rect><rect width="38" height="38" x="1" y="109" fill="#fff" rx="19"></rect><path fill="#9ecc82" d="M16 119l-8 9 8 9v-18zm16 9l-8-9v18l8-9z"></path><rect width="38" height="38" x="1" y="109" stroke="#9ecc82" stroke-width="2" rx="19"></rect></svg><svg fill="none" id="control-knob-256-hover" viewBox="0 0 40 256"><rect width="4" height="256" x="18" fill="#68b738" rx="2"></rect><rect width="38" height="38" x="1" y="109" fill="#fff" rx="19"></rect><path fill="#68b738" d="M16 119l-8 9 8 9v-18zm16 9l-8-9v18l8-9z"></path><rect width="38" height="38" x="1" y="109" stroke="#68b738" stroke-width="2" rx="19"></rect></svg><svg fill="none" id="control-knob-256" viewBox="0 0 40 256"><rect width="4" height="256" x="18" fill="#666" rx="2"></rect><rect width="38" height="38" x="1" y="109" fill="#fff" rx="19"></rect><path fill="#666" d="M16 119l-8 9 8 9v-18zm16 9l-8-9v18l8-9z"></path><rect width="38" height="38" x="1" y="109" stroke="#666" stroke-width="2" rx="19"></rect></svg><svg fill="none" id="control-knob-512-active" viewBox="0 0 40 512"><rect width="4" height="512" x="18" fill="#9ecc82" rx="2"></rect><rect width="38" height="38" x="1" y="237" fill="#fff" rx="19"></rect><path fill="#9ecc82" d="M16 247l-8 9 8 9v-18zm16 9l-8-9v18l8-9z"></path><rect width="38" height="38" x="1" y="237" stroke="#9ecc82" stroke-width="2" rx="19"></rect></svg><svg fill="none" id="control-knob-512-hover" viewBox="0 0 40 512"><rect width="4" height="512" x="18" fill="#68b738" rx="2"></rect><rect width="38" height="38" x="1" y="237" fill="#fff" rx="19"></rect><path fill="#68b738" d="M16 247l-8 9 8 9v-18zm16 9l-8-9v18l8-9z"></path><rect width="38" height="38" x="1" y="237" stroke="#68b738" stroke-width="2" rx="19"></rect></svg><svg fill="none" id="control-knob-512" viewBox="0 0 40 512"><rect width="4" height="512" x="18" fill="#666" rx="2"></rect><rect width="38" height="38" x="1" y="237" fill="#fff" rx="19"></rect><path fill="#666" d="M16 247l-8 9 8 9v-18zm16 9l-8-9v18l8-9z"></path><rect width="38" height="38" x="1" y="237" stroke="#666" stroke-width="2" rx="19"></rect></svg><svg fill="none" id="control-knob" viewBox="0 0 40 40"><rect width="38" height="38" x="1" y="1" fill="#fff" rx="19"></rect><path fill="currentColor" d="M16 11l-8 9 8 9V11zm16 9l-8-9v18l8-9z"></path><rect width="38" height="38" x="1" y="1" stroke="currentColor" stroke-width="2" rx="19"></rect></svg><svg viewBox="0 0 27 34" fill="currentColor" id="htmlacademy-logo"><path d="M13.643.016L13.5 0 0 1.407v24.606L13.5 34 27 26.013V1.407L13.643.016zm11.591 25L13.5 31.956 1.766 25.015V14.93l11.685 6.916.02 1.253-8.017-4.743-.011 1.225 8.046 4.809.02 1.286-8.045-4.758-.01 1.226L13.5 26.95l8.124-4.833V16.91l3.62-2.15-.01 10.256zm0-11.564l-3.22 1.88-1.482.875-7.065-4.187-.011 1.225 6.04 3.573-.053.031-.13.076-.86.492-4.986-2.948-.011 1.225 3.936 2.328-.933.61-.021.012-2.971-1.742-.011 1.225 1.947 1.135-1.988 1.186-11.618-6.872 11.638-6.958 11.8 6.834zm0-1.225L13.44 5.31 1.766 12.22V2.99L13.5 1.764 25.234 2.99v9.237z"></path></svg><svg fill="none" id="icon-gift" viewBox="0 0 80 84"><path fill="#fff" d="M65.657 36.757H14.391a3.266 3.266 0 01-3.263-3.262v-9.772a3.267 3.267 0 013.263-3.263h51.265a3.266 3.266 0 013.262 3.263v9.773a3.264 3.264 0 01-3.26 3.261zM14.391 22.96a.773.773 0 00-.763.763v9.773c0 .42.342.762.763.762h51.265c.42 0 .762-.342.762-.762v-9.773a.772.772 0 00-.762-.763H14.391z"></path><path fill="#fff" d="M58.508 70.236h-36.97a6.289 6.289 0 01-6.282-6.282V35.507a1.25 1.25 0 012.5 0v28.447a3.786 3.786 0 003.782 3.782h36.97a3.786 3.786 0 003.78-3.782V35.507a1.25 1.25 0 012.5 0v28.447a6.288 6.288 0 01-6.28 6.282z"></path><path fill="#fff" d="M40.023 70.236c-.69 0-1.25-.56-1.25-1.25V35.507a1.25 1.25 0 012.5 0v33.478a1.25 1.25 0 01-1.25 1.251zm-15.601-47.28c-3.913-2.12-5.373-7.027-3.255-10.94 2.117-3.912 7.024-5.372 10.938-3.256C38.07 11.99 41.29 21 41.422 21.383l-2.358.83c-.03-.086-3.038-8.486-8.148-11.255a5.578 5.578 0 00-7.55 2.247 5.58 5.58 0 002.248 7.553l-1.192 2.198z"></path><path fill="#fff" d="M55.622 22.956l-1.19-2.199a5.541 5.541 0 002.688-3.31 5.53 5.53 0 00-.441-4.241 5.527 5.527 0 00-3.309-2.688 5.533 5.533 0 00-4.24.44c-5.11 2.768-8.118 11.169-8.148 11.254l-2.358-.83C38.758 21 41.977 11.99 47.94 8.76a8.015 8.015 0 016.144-.638 8.01 8.01 0 014.794 3.893 8.013 8.013 0 01.639 6.144 8.028 8.028 0 01-3.895 4.797zm7.916 30.541H16.506a1.25 1.25 0 010-2.5h47.032a1.25 1.25 0 010 2.5z"></path></svg><svg id="input-email-icon"><path stroke="currentColor" stroke-linecap="round" fill="none" stroke-linejoin="round" d="M.5 5.5v8h17v-8M.5.5h17v2L9 8.5l-8.5-6v-2z"></path></svg><svg id="input-phone-icon"><path stroke="currentColor" stroke-linecap="round" fill="none" stroke-linejoin="round" d="M7 8h8.5m0 0L13 5.5M15.5 8L13 10.5M5.5.5v5h-3v5h3v5H3c-1.5 0-2.5-1-2.5-2.5V3C.5 1.5 1.5.5 3 .5h2.5z"></path></svg><svg viewBox="0 0 32 12" id="program-arrow"><path d="M32 6l-6.8 5.2V.8L32 6zM0 5h25.2v2H0z"></path></svg><svg id="sprite"><view viewBox="0 0 140 194"></view><path d="M109.7 0h-.8a7 7 0 00-2.9 3.2 31 31 0 00-2.6 6.8 3.3 3.3 0 01-3 2.7A14.7 14.7 0 0090 20.2a54.6 54.6 0 00-3.7 8c-2.8 7.4-5 15-7.7 22.4-1.3 3.4-1.3 3.4-5.1 3.4-4.6 0-4.2-.7-4.3 4.3 0 1.6.5 2.4 2.2 2.3.5 0 1.3-.3 1.5.4.2.7-.5 1-1 1.4a18 18 0 01-8.6 4.9c-3.8 1-7.7 1.8-11.4 3a57.3 57.3 0 00-25 15.2 56 56 0 00-9.6 15.7A219.4 219.4 0 003.7 155c-1.3 8.6-2.2 17.3-3 26-.3 4.3-.7 8.6-.7 13h66.7c0-.9 0-1.8-.5-2.6a10 10 0 00-7.7-6.1c-1.4-.3-1.5-.7-.7-1.8 1.4-2 2.5-4 3.2-6.2 3.3-9.7 4.5-19.7 6.1-29.6A60 60 0 0174 126c2.8-5 6.6-9.3 11.2-12.7 1.6-1.3 1.7-1.3 2 .8l.3 4.4c.6 9.4.5 18.9-.3 28.3a123.3 123.3 0 004.2 47.2H118a10.8 10.8 0 00-8.5-8.9 18 18 0 00-7.5.4c-1.2.3-1.7 0-1.8-1.3-.8-10.6-.2-21.2 2-31.6 2.7-12 4.7-24.2 6.1-36.4.5-5 2.1-9.7 4.6-14 2.4-4.2 4.4-8.6 6.8-12.9a11.7 11.7 0 00.8-10.4c-.5-1.4-1-2.8-1.7-4.2-2-3.9-4-7.7-5.8-11.7-1-2-.8-2.2 1.4-2.3 3.2 0 3.2 0 3.3-3.3v-1.3c0-1.4-.5-2.1-2-2h-3c-1.4 0-1.8-.6-1.5-2a12.5 12.5 0 0110.3-8.8 44 44 0 0113.2.8 2 2 0 002.5-1.3l2.6-6a2 2 0 00-.2-2.2 71.1 71.1 0 00-24-21.5 3 3 0 01-.6-1.3c-.5-2.9-1.3-5.7-2.5-8.4a7 7 0 00-2.8-3.4z"></path><view viewBox="140 0 268 112"></view><path d="M386.2 11.5c2.3-3.7 5.4-6.8 9-9.2 2-1.4 3.2-1.4 4.4 1.2 1.6 3.8 3 7.8 1.8 12a4.6 4.6 0 00.8 4.2l3.2 4.6a12.5 12.5 0 011.8 12.4c-.7 2-.8 4.2-.4 6.2s.4 4 0 6a7.5 7.5 0 01-5.4 6.4c-2.5.5-4.8 2-6.4 4a2 2 0 01-1.8 1c-2.4.4-8.4-5-8.4-7.4v-1.2c.2-7.2-.2-7.8-6.8-10.8a8.8 8.8 0 01-3.6-2.4c-1.2-1.6-2.8-1.4-4.6-.8-1.8.6-2.8 1.8-2.6 3.8.6 4.9.8 9.7.6 14.6 0 .6.2 1.1.4 1.6 6.2 9 8.6 19.6 11.6 29.8 2.4 7.8 6.8 12 14.8 12.6 1.3.1 2.6.3 3.8.6a8.3 8.3 0 016.8 6.4c1.4 4.2.6 5.2-3.6 5.2h-13c-1.6.1-3.3-.5-4.6-1.6-2-1.7-4.3-3-6.8-4-2.7-1-5-2.8-6.8-5.2-2.3-3.3-5-6.3-8-9-5.6-5.8-11.6-11.4-16.8-17.4-4-4-6.2-9.5-6.4-15.2 0-1.8-.4-2.6-2.4-1.8-.6.4-1.3.6-2 .6-5.6 0-8.4 3.4-10.4 8.4-1.8 4.2-4.2 8.2-6.4 12.4-1.2 2.6-1.9 5.5-2 8.4 0 4.8 1.2 6.4 5.6 8 2.8 1 5.4 2 6.8 4.8 1.6 3.2 1.2 4-2.2 4.2h-13.6a3.8 3.8 0 01-3.8-2.2l-3.6-6a12.1 12.1 0 01-1.4-10.8c.9-3.5 1-7 .2-10.6a16.8 16.8 0 013.4-14c1.2-1.4 1.2-2-.8-2.4a100.1 100.1 0 01-23.8-8.4c-6.4-2.4-7.6-2-9.4 4.6-1.6 5.6-3.2 11.2-4.4 17a34 34 0 002.2 18.4c.8 2.4 3.2 2.2 5 2.8 4 1.2 7.4 2.8 9 7 1.4 3.2 1.2 3.6-2.2 3.6-3.4 0-6.8-.2-10.4 0-3 0-6-1-8.4-2.8-9.6-6.4-12.4-16.2-13.2-26.8-.4-6.6-4-11.8-8.2-16.8-.8-1-1.6-1.4-2.8-.6a88.6 88.6 0 01-13.4 6 53.4 53.4 0 00-24.4 17.6c-2.3 3-3.8 6.5-4.4 10.2-.6 3.6.4 5.2 4 6.2s5.4 3 5.8 6.8c.2 1.6-.4 2.4-2 2.4h-16.2a3.3 3.3 0 01-2.6-1.6c-2.5-3.1-3.8-7-3.8-11 0-6.9.5-13.8 1.8-20.6a12.6 12.6 0 016.8-9.6c11.8-5.6 18-16.2 23.6-27.2 1.2-2.2.2-2.6-1.8-2.4a33 33 0 00-15.4 6.4c-5.9 4.3-11.4 9-16.6 14.2-5.5 5.6-12.8 9-20.6 9.8-14.6.9-21.4-7.4-20.8-20.6.2-4.5 2-8.8 4.8-12.2a8.5 8.5 0 019-3c3 .8 3.8 2.4 2.6 5.4l-2 3.4a15 15 0 00-2 4c-2.2 6 .8 10.2 7 10.8 6.6.6 12-2.2 17-6.2 6-4.8 11.4-10.4 16-16.6A41.6 41.6 0 01221.2 13c4.6-.6 8.6-2.6 13-3.8a83 83 0 0125.4-3.6c4 .2 8-.6 11.6-2.2 9.8-4 20-4 30.2-2 8 1.6 16 3.6 23.8 5.6 4.7.9 9.5.7 14-.4C348 4.3 357 3 366 2.5c6-.3 11.9.9 17.2 3.4 4 1.8 4 1.8 3 5.6z"></path><view viewBox="0 200 25 30"></view><g fill="#fff" fill-rule="evenodd" clip-rule="evenodd"><path d="M18.6 200c.4 0 .8 0 1.1.3 1 .9 2.1 2.9 3 6 1 3 1.8 7.2 1.8 12.7 0 .6-.4 1-1 1H20v9a1 1 0 11-2 0v-28c0-.4.2-.8.6-1zm1.4 18h2.5a39.6 39.6 0 00-2.5-13.5V218zM6 200c.6 0 1 .4 1 1v28a1 1 0 11-2 0v-28c0-.6.4-1 1-1z"></path><path d="M1.5 200c.6 0 1 .4 1 1v5.5c0 .6.2 1.3.7 2 .5.5 1.3 1 2.8 1a1 1 0 110 2c-2 0-3.4-.7-4.3-1.8a5 5 0 01-1.2-3.2V201c0-.6.4-1 1-1z"></path><path d="M10.5 200a1 1 0 00-1 1v5.5a3 3 0 01-.7 2c-.5.5-1.3 1-2.8 1a1 1 0 000 2c2 0 3.4-.7 4.3-1.8a5 5 0 001.2-3.2V201c0-.6-.4-1-1-1z"></path></g><view viewBox="50 200 30 32"></view><path fill="#fff" d="M77.78 202.77a.95.95 0 00-.92-.77c-4.94.03-16.95.92-21.8 8.38-2.51 3.88-2.73 8.91-.64 14.96l.07.13a25.93 25.93 0 00-1.04 3.32c-.11.54.21 1.07.72 1.19l.2.02c.43 0 .82-.32.91-.79.02-.1 2.4-10.37 10.85-16.38.44-.3.55-.93.26-1.38a.9.9 0 00-1.3-.28c-4.78 3.4-7.73 8-9.47 11.65-1.24-4.57-.91-8.37.99-11.3 3.74-5.76 12.62-7.15 17.98-7.45-1.15 1.8-2.41 5.1-2.41 10.93 0 3.12-.83 5.52-2.47 7.14-2.62 2.6-6.88 2.83-10 2.58-.5-.04-.96.38-1 .93-.04.55.35 1.03.87 1.07.62.05 1.28.08 1.98.08 3.17 0 6.87-.66 9.43-3.2 2.03-2 3.06-4.9 3.06-8.6 0-9.1 3.22-11.1 3.23-11.1.4-.21.6-.68.5-1.13z"></path><view viewBox="100 200 26 29"></view><path fill="#fff" d="M110.88 200c-1.64 0-2.9 1.36-2.9 3.08s1.26 3.08 2.9 3.08c1.63 0 2.9-1.36 2.9-3.08s-1.28-3.08-2.9-3.08zm0 1.18c1 0 1.72.84 1.72 1.9 0 1-.8 1.9-1.72 1.9-1 0-1.73-.84-1.73-1.9 0-1 .78-1.9 1.72-1.9zM100 224.74c0 1.18.4 2.18 1.36 3 1 .84 2.17.77 2.17.77h19.04c.77 0 1.8-.38 2.62-1.45.85-1 .8-2.36.8-2.36v-17.2c0-.44-.12-.6-.75-.6-.64 0-.69.27-.69.59v17.21c-.02.3-.07 1.08-.74 1.72-.74.62-1.45.54-1.45.54s-18.13 0-19.03-.03a2.14 2.14 0 01-1.45-.9c-.51-.73-.41-1.63-.41-1.63v-17.22c0-.46-.24-.64-.73-.64s-.74.18-.74.58v17.62zm16.31-16.31c-1.08.23-2.17.38-4.26 2.35-2.08 2-3.62 1.9-5.16 1.82-1.54-.1-3.17-1.54-3.45-1.9-.33-.36-.9-.12-1.08.11-.16.24-.16.64.1 1 1.27 1.18 2.45 2.08 4.72 2.26a7.5 7.5 0 005.89-2.26c1.45-1.45 2.17-1.72 3.26-1.9a6.3 6.3 0 015.08 1.26c1 1.1 1.26.78 1.54.48.54-.72-.23-1.27-1.1-1.9a7.24 7.24 0 00-5.52-1.28l-.02-.04zm-9.06 7.16c-1.18 0-2.08 1-2.08 2.26 0 1.27.9 2.27 2.08 2.27 1.18 0 2.08-1 2.08-2.27s-.9-2.26-2.08-2.26zm11.78.78c-1.54 0-2.8 1.36-2.8 2.99 0 1.63 1.26 2.99 2.8 2.99 1.54 0 2.81-1.36 2.81-3 0-1.62-1.27-2.98-2.8-2.98zm0 1.45c.8 0 1.45.7 1.45 1.54a1.5 1.5 0 01-1.45 1.54c-.8 0-1.45-.7-1.45-1.54 0-.86.65-1.54 1.45-1.54z"></path><view viewBox="150 200 26 31"></view><path fill="#fff" d="M155.54 200c-1.06 0-1.06 1.58 0 1.58h6.64v1.6c-6.8.45-12.18 6.24-12.18 13.31 0 4.02 1.74 7.64 4.5 10.07.47.43.54 1.18.1 1.64l-1.53 1.55c-.74.69.36 1.75 1.03 1l2-2.03c.35-.34.87-.43 1.3-.21a12.7 12.7 0 0011.07.06c.43-.21.96-.13 1.3.21l1.94 1.97c.68.64 1.65-.31 1.04-1l-1.45-1.48c-.44-.45-.38-1.2.1-1.63a13.46 13.46 0 004.6-10.17c0-7.07-5.41-12.87-12.22-13.27v-1.6h6.64c1.06 0 1.06-1.59 0-1.59h-14.88zm-4.1 16.47A11.7 11.7 0 01163 204.65c6.38 0 11.55 5.3 11.55 11.82 0 6.55-5.17 11.85-11.55 11.85-6.38 0-11.57-5.3-11.57-11.85zm10.75-8.09c0-1.1 1.66-1.1 1.66 0v8.63a.84.84 0 01-.85.85.81.81 0 01-.8-.8v-8.67zm-4.97 2.62a1.16 1.16 0 001.16-1.15 1.15 1.15 0 00-1.16-1.15 1.16 1.16 0 00-1.05 1.14 1.15 1.15 0 001.05 1.16zm11.55 0a1.16 1.16 0 001.16-1.15 1.15 1.15 0 00-1.16-1.15 1.16 1.16 0 00-1.05 1.14 1.15 1.15 0 001.05 1.16zm-10.4 12.59c0 1.53-2.31 1.53-2.31 0s2.32-1.53 2.32 0zm4.63 3.44a1.17 1.17 0 001.17-.68 1.14 1.14 0 00-.7-1.56 1.17 1.17 0 00-1.22.32 1.15 1.15 0 00.75 1.92zm-8.09-10.39a1.14 1.14 0 01-.68 1.17 1.17 1.17 0 01-1.57-.7 1.14 1.14 0 01.32-1.2 1.16 1.16 0 011.93.73zm17.33 1.15a1.16 1.16 0 001.17-.68 1.14 1.14 0 00-.7-1.55 1.17 1.17 0 00-1.22.32 1.15 1.15 0 00.75 1.91zm-2.31 5.8c0 1.53-2.32 1.53-2.32 0s2.32-1.53 2.32 0z"></path><view viewBox="200 200 80 84"></view><g fill="#fff"><path d="M265.657 236.757h-51.266a3.266 3.266 0 01-3.263-3.262v-9.772a3.267 3.267 0 013.263-3.263h51.265a3.266 3.266 0 013.262 3.263v9.773a3.264 3.264 0 01-3.26 3.261zm-51.266-13.797a.773.773 0 00-.763.763v9.773c0 .42.342.762.763.762h51.265c.42 0 .762-.342.762-.762v-9.773a.772.772 0 00-.762-.763h-51.265z"></path><path d="M258.508 270.236h-36.97a6.289 6.289 0 01-6.282-6.282v-28.447a1.25 1.25 0 012.5 0v28.447a3.786 3.786 0 003.782 3.782h36.97a3.786 3.786 0 003.78-3.782v-28.447a1.25 1.25 0 012.5 0v28.447a6.288 6.288 0 01-6.28 6.282z"></path><path d="M240.023 270.236c-.69 0-1.25-.56-1.25-1.25v-33.479a1.25 1.25 0 012.5 0v33.478a1.25 1.25 0 01-1.25 1.251zm-15.601-47.28c-3.913-2.12-5.373-7.027-3.255-10.94 2.117-3.912 7.024-5.372 10.938-3.256 5.965 3.23 9.185 12.24 9.317 12.623l-2.358.83c-.03-.086-3.038-8.486-8.148-11.255a5.578 5.578 0 00-7.55 2.247 5.58 5.58 0 002.248 7.553l-1.192 2.198z"></path><path d="M255.622 222.956l-1.19-2.199a5.541 5.541 0 002.688-3.31 5.53 5.53 0 00-.441-4.241 5.527 5.527 0 00-3.309-2.688 5.533 5.533 0 00-4.24.44c-5.11 2.768-8.118 11.169-8.148 11.254l-2.358-.83c.134-.382 3.353-9.392 9.316-12.622a8.015 8.015 0 016.144-.638 8.01 8.01 0 014.794 3.893 8.013 8.013 0 01.639 6.144 8.028 8.028 0 01-3.895 4.797zm7.916 30.541h-47.032a1.25 1.25 0 010-2.5h47.032a1.25 1.25 0 010 2.5z"></path></g><view viewBox="0 300 32 12"></view><path d="M32 306l-6.8 5.2v-10.4L32 306zm-32-1h25.2v2H0z"></path><view viewBox="50 300 24 19"></view><path d="M59 315.499l-7.6-8.598-1.4 1.584 9 10.182 15-16.97L72.6 300 59 315.499z" fill="#68b738"></path></svg><svg fill="currentColor" viewBox="0 0 28 22" id="telegram-icon"><path fill-rule="evenodd" d="M23.46 3.15c.18.15.27.38.23.61l-2.63 15.76a.66.66 0 01-1.01.44l-7.88-5.25a.66.66 0 01-.15-.96l2.61-3.26-4.36 2.9a.66.66 0 01-.65.05L4.36 10.8a.66.66 0 01.08-1.2l18.38-6.57a.66.66 0 01.64.11zM6.33 10.32l3.53 1.77 7.56-5.04a.66.66 0 01.88.96l-4.8 6 6.43 4.3 2.28-13.66-15.88 5.67z" clip-rule="evenodd"></path></svg><svg fill="currentColor" id="vk-icon" viewBox="0 0 28 22"><path d="M1 5.34c0-.86.52-1.32 1.55-1.38l3.97.02c.26 0 .44.13.53.38.4 1.26.86 2.34 1.37 3.25.5.92 1.17 1.97 1.99 3.16.07.15.18.23.34.23.13 0 .22-.06.3-.18l.07-.28.03-4.35c0-.3-.07-.5-.23-.6-.15-.1-.43-.18-.83-.23-.32-.05-.48-.23-.48-.55 0-.07 0-.12.02-.15.38-1.09 1.44-1.63 3.2-1.63l1.5-.03c.67 0 1.23.16 1.67.48.44.32.67.82.67 1.5v5.72c.12.08.24.12.34.12.27 0 .5-.15.7-.45 1.95-2.58 3-4.31 3.17-5.18 0-.02.01-.06.05-.13.12-.25.33-.47.61-.65.29-.19.53-.31.75-.38a.55.55 0 01.24-.05h4.13l.26.03c.36 0 .63.16.83.47.07.1.12.21.15.33a2.4 2.4 0 01.06.55v.18a6.11 6.11 0 01-.94 2.2c-.5.78-1.15 1.62-1.93 2.53-.79.9-1.27 1.5-1.47 1.78-.16.2-.24.39-.24.56 0 .13.07.28.21.45l3.9 4.63c.2.26.31.56.31.88 0 .38-.16.7-.48.95-.32.25-.7.4-1.14.43l-.46.02h-4.04c-.02 0-.06 0-.11.02a.86.86 0 01-.1.01c-.4 0-.76-.16-1.1-.48-.12-.13-.96-1.12-2.5-2.97a1.39 1.39 0 00-.38-.32 38.47 38.47 0 00-.53 2.24l-.08.42a1.4 1.4 0 01-1.12 1.06l-.37.02h-2.61c-1.48 0-2.95-.63-4.41-1.9a19.3 19.3 0 01-3.96-4.95 47.51 47.51 0 01-3.28-7.05A1.92 1.92 0 011 5.34zm16.01 6.51c-.37 0-.7-.1-1.01-.29a.9.9 0 01-.45-.79V5c0-.34-.1-.58-.27-.72-.18-.14-.49-.21-.93-.21l-1.52.05c-.76 0-1.34.12-1.73.37.78.36 1.17.93 1.17 1.71v4.43a1.5 1.5 0 01-.53 1.04c-.32.28-.68.42-1.07.42-.53 0-.94-.24-1.22-.73a26.16 26.16 0 01-3.1-5.63l-.23-.66-3.55-.02c-.23 0-.36.01-.38.03-.03.03-.04.1-.04.22 0 .15.01.3.05.48l.56 1.4c1.49 3.64 3.11 6.51 4.86 8.6 1.75 2.1 3.47 3.15 5.16 3.15h2.66c.1 0 .19-.03.24-.09.05-.06.1-.17.13-.34l.06-.25.5-2.21c.15-.3.27-.5.38-.6.2-.2.42-.28.69-.28.43 0 .86.24 1.3.73l2.27 2.71c.14.22.3.33.45.33h4.4c.53 0 .8-.13.8-.38a.47.47 0 00-.08-.25l-3.87-4.55c-.3-.35-.45-.73-.45-1.13 0-.4.14-.8.43-1.16.23-.34.68-.9 1.34-1.67.67-.78 1.25-1.51 1.75-2.19.5-.68.82-1.3.98-1.85l.08-.33a.37.37 0 01-.02-.16c0-.07-.01-.14-.03-.19h-4.18c-.27.1-.48.25-.64.45L21.8 6c-.45 1.16-1.6 2.94-3.5 5.36-.36.33-.8.5-1.3.5z"></path></svg><svg fill="none" viewBox="0 0 25 30" id="workflow-icon-changes"><path fill="#fff" fill-rule="evenodd" d="M18.6 0c.4 0 .8 0 1.1.3 1 .9 2.1 2.9 3 6 1 3 1.8 7.2 1.8 12.7 0 .6-.4 1-1 1H20v9a1 1 0 11-2 0V1c0-.4.2-.8.6-1zM20 18h2.5A39.6 39.6 0 0020 4.5V18zM6 0c.6 0 1 .4 1 1v28a1 1 0 11-2 0V1c0-.6.4-1 1-1z" clip-rule="evenodd"></path><path fill="#fff" fill-rule="evenodd" d="M1.5 0c.6 0 1 .4 1 1v5.5c0 .6.2 1.3.7 2 .5.5 1.3 1 2.8 1a1 1 0 110 2c-2 0-3.4-.7-4.3-1.8A5 5 0 01.5 6.5V1c0-.6.4-1 1-1z" clip-rule="evenodd"></path><path fill="#fff" fill-rule="evenodd" d="M10.5 0a1 1 0 00-1 1v5.5a3 3 0 01-.7 2c-.5.5-1.3 1-2.8 1a1 1 0 000 2c2 0 3.4-.7 4.3-1.8a5 5 0 001.2-3.2V1c0-.6-.4-1-1-1z" clip-rule="evenodd"></path></svg><svg fill="none" viewBox="0 0 30 32" id="workflow-icon-contents"><path fill="#fff" d="M27.78 2.77a.95.95 0 00-.92-.77c-4.94.03-16.95.92-21.8 8.38-2.51 3.88-2.73 8.91-.64 14.96l.07.13a25.93 25.93 0 00-1.04 3.32c-.11.54.21 1.07.72 1.19l.2.02c.43 0 .82-.32.91-.79.02-.1 2.4-10.37 10.85-16.38.44-.3.55-.93.26-1.38a.9.9 0 00-1.3-.28c-4.78 3.4-7.73 8-9.47 11.65-1.24-4.57-.91-8.37.99-11.3 3.74-5.76 12.62-7.15 17.98-7.45-1.15 1.8-2.41 5.1-2.41 10.93 0 3.12-.83 5.52-2.47 7.14-2.62 2.6-6.88 2.83-10 2.58-.5-.04-.96.38-1 .93-.04.55.35 1.03.87 1.07.62.05 1.28.08 1.98.08 3.17 0 6.87-.66 9.43-3.2 2.03-2 3.06-4.9 3.06-8.6 0-9.1 3.22-11.1 3.23-11.1.4-.21.6-.68.5-1.13z"></path></svg><svg fill="none" viewBox="0 0 26 29" id="workflow-icon-powder"><path fill="#fff" d="M10.88 0c-1.64 0-2.9 1.36-2.9 3.08s1.26 3.08 2.9 3.08c1.63 0 2.9-1.36 2.9-3.08S12.5 0 10.88 0zm0 1.18c1 0 1.72.84 1.72 1.9 0 1-.8 1.9-1.72 1.9-1 0-1.73-.84-1.73-1.9 0-1 .78-1.9 1.72-1.9zM0 24.74c0 1.18.4 2.18 1.36 3 1 .84 2.17.77 2.17.77h19.04c.77 0 1.8-.38 2.62-1.45.85-1 .8-2.36.8-2.36V7.5c0-.44-.12-.6-.75-.6-.64 0-.69.27-.69.59V24.7c-.02.3-.07 1.08-.74 1.72-.74.62-1.45.54-1.45.54s-18.13 0-19.03-.03a2.14 2.14 0 01-1.45-.9c-.51-.73-.41-1.63-.41-1.63V7.18c0-.46-.24-.64-.73-.64S0 6.72 0 7.12v17.62zM16.31 8.43c-1.08.23-2.17.38-4.26 2.35-2.08 2-3.62 1.9-5.16 1.82-1.54-.1-3.17-1.54-3.45-1.9-.33-.36-.9-.12-1.08.11-.16.24-.16.64.1 1 1.27 1.18 2.45 2.08 4.72 2.26a7.5 7.5 0 005.89-2.26c1.45-1.45 2.17-1.72 3.26-1.9a6.3 6.3 0 015.08 1.26c1 1.1 1.26.78 1.54.48.54-.72-.23-1.27-1.1-1.9a7.24 7.24 0 00-5.52-1.28l-.02-.04zm-9.06 7.16c-1.18 0-2.08 1-2.08 2.26 0 1.27.9 2.27 2.08 2.27 1.18 0 2.08-1 2.08-2.27s-.9-2.26-2.08-2.26zm11.78.78c-1.54 0-2.8 1.36-2.8 2.99 0 1.63 1.26 2.99 2.8 2.99 1.54 0 2.81-1.36 2.81-3 0-1.62-1.27-2.98-2.8-2.98zm0 1.45c.8 0 1.45.7 1.45 1.54a1.5 1.5 0 01-1.45 1.54c-.8 0-1.45-.7-1.45-1.54 0-.86.65-1.54 1.45-1.54z"></path></svg><svg fill="none" id="workflow-icon-result" viewBox="0 0 26 31"><path fill="#fff" d="M5.54 0c-1.06 0-1.06 1.58 0 1.58h6.64v1.6C5.38 3.63 0 9.42 0 16.49c0 4.02 1.74 7.64 4.5 10.07.47.43.54 1.18.1 1.64l-1.53 1.55c-.74.69.36 1.75 1.03 1l2-2.03c.35-.34.87-.43 1.3-.21a12.7 12.7 0 0011.07.06c.43-.21.96-.13 1.3.21l1.94 1.97c.68.64 1.65-.31 1.04-1l-1.45-1.48c-.44-.45-.38-1.2.1-1.63A13.46 13.46 0 0026 16.47C26 9.4 20.59 3.6 13.78 3.2V1.6h6.64c1.06 0 1.06-1.59 0-1.59H5.54zm-4.1 16.47A11.7 11.7 0 0113 4.65c6.38 0 11.55 5.3 11.55 11.82 0 6.55-5.17 11.85-11.55 11.85-6.38 0-11.57-5.3-11.57-11.85zm10.75-8.09c0-1.1 1.66-1.1 1.66 0v8.63a.84.84 0 01-.85.85.81.81 0 01-.8-.8V8.39zM7.22 11a1.16 1.16 0 001.16-1.15A1.15 1.15 0 007.22 8.7a1.16 1.16 0 00-1.05 1.14A1.15 1.15 0 007.22 11zm11.55 0a1.16 1.16 0 001.16-1.15 1.15 1.15 0 00-1.16-1.15 1.16 1.16 0 00-1.05 1.14A1.15 1.15 0 0018.77 11zM8.37 23.59c0 1.53-2.31 1.53-2.31 0s2.32-1.53 2.32 0zM13 27.03a1.17 1.17 0 001.17-.68 1.14 1.14 0 00-.7-1.56 1.17 1.17 0 00-1.22.32 1.15 1.15 0 00.75 1.92zM4.91 16.64a1.14 1.14 0 01-.68 1.17 1.17 1.17 0 01-1.57-.7 1.14 1.14 0 01.32-1.2 1.16 1.16 0 011.93.73zm17.33 1.15a1.16 1.16 0 001.17-.68 1.14 1.14 0 00-.7-1.55 1.17 1.17 0 00-1.22.32 1.15 1.15 0 00.75 1.91zm-2.31 5.8c0 1.53-2.32 1.53-2.32 0s2.32-1.53 2.32 0z"></path></svg><svg fill="currentColor" id="youtube-icon" viewBox="0 0 28 22"><path d="M17.85 10.8l-5.24-3.5a.65.65 0 00-1.01.55v6.98a.65.65 0 001.01.54l5.24-3.49a.65.65 0 000-1.09zm-4.94 2.8V9.08l3.4 2.27-3.4 2.27zm12.48-8.56a2.4 2.4 0 00-1.45-1.63C20.22 1.98 14.25 2 14 2s-6.22-.02-9.94 1.4a2.4 2.4 0 00-1.45 1.64 25.32 25.32 0 00-.61 6.3c0 3.26.33 5.22.61 6.3a2.4 2.4 0 001.45 1.63c3.72 1.43 9.69 1.4 9.94 1.4h.08c.75 0 6.31-.04 9.86-1.4a2.4 2.4 0 001.45-1.64c.28-1.07.61-3.03.61-6.3 0-3.25-.33-5.22-.61-6.29zm-1.27 12.27a1.1 1.1 0 01-.65.74c-3.5 1.34-9.4 1.32-9.47 1.32-.07 0-5.98.02-9.47-1.32a1.09 1.09 0 01-.65-.74c-.27-1-.57-2.85-.57-5.97 0-3.12.3-4.97.57-5.97a1.1 1.1 0 01.65-.74C8.03 3.29 13.93 3.3 14 3.3c.07 0 5.98-.02 9.47 1.32a1.1 1.1 0 01.65.74c.27 1 .57 2.85.57 5.97 0 3.12-.3 4.96-.57 5.97z"></path></svg></svg>